Kedebideri-Bold.ufo
<glyph name="A" format="2">
  <advance width="554"/>
  <unicode hex="0041"/>
  <anchor x="276" y="702" name="aboveUC"/>
  <outline>
    <contour>
      <point x="474" y="0" type="line"/>
      <point x="549" y="0" type="line"/>
      <point x="316" y="679" type="line"/>
      <point x="238" y="679" type="line"/>
      <point x="4" y="0" type="line"/>
      <point x="76" y="0" type="line"/>
      <point x="148" y="217" type="line"/>
      <point x="403" y="217" type="line"/>
    </contour>
    <contour>
      <point x="164" y="274" type="line"/>
      <point x="203" y="387" type="line" smooth="yes"/>
      <point x="229" y="465"/>
      <point x="252" y="538"/>
      <point x="274" y="618" type="curve"/>
      <point x="278" y="618" type="line"/>
      <point x="300" y="538"/>
      <point x="323" y="465"/>
      <point x="349" y="387" type="curve" smooth="yes"/>
      <point x="387" y="274" type="line"/>
    </contour>
  </outline>
</glyph>
<glyph name="D" format="2">
  <advance width="631"/>
  <unicode hex="0044"/>
  <anchor x="315" y="702" name="aboveUC"/>
  <outline>
    <contour>
      <point x="95" y="0" type="line"/>
      <point x="263" y="0" type="line" smooth="yes"/>
      <point x="469" y="0"/>
      <point x="576" y="130"/>
      <point x="576" y="341" type="curve" smooth="yes"/>
      <point x="576" y="553"/>
      <point x="469" y="679"/>
      <point x="260" y="679" type="curve" smooth="yes"/>
      <point x="95" y="679" type="line"/>
    </contour>
    <contour>
      <point x="166" y="58" type="line"/>
      <point x="166" y="620" type="line"/>
      <point x="254" y="620" type="line" smooth="yes"/>
      <point x="423" y="620"/>
      <point x="503" y="515"/>
      <point x="503" y="341" type="curve" smooth="yes"/>
      <point x="503" y="168"/>
      <point x="423" y="58"/>
      <point x="254" y="58" type="curve" smooth="yes"/>
    </contour>
  </outline>
</glyph>
<glyph name="L" format="2">
  <advance width="494"/>
  <unicode hex="004C"/>
  <anchor x="132" y="702" name="aboveUC"/>
  <outline>
    <contour>
      <point x="95" y="0" type="line"/>
      <point x="469" y="0" type="line"/>
      <point x="469" y="60" type="line"/>
      <point x="166" y="60" type="line"/>
      <point x="166" y="679" type="line"/>
      <point x="95" y="679" type="line"/>
    </contour>
  </outline>
</glyph>
<glyph name="N" format="2">
  <advance width="663"/>
  <unicode hex="004E"/>
  <anchor x="336" y="702" name="aboveUC"/>
  <outline>
    <contour>
      <point x="95" y="0" type="line"/>
      <point x="162" y="0" type="line"/>
      <point x="162" y="382" type="line" smooth="yes"/>
      <point x="162" y="451"/>
      <point x="157" y="519"/>
      <point x="153" y="586" type="curve"/>
      <point x="158" y="586" type="line"/>
      <point x="232" y="448" type="line"/>
      <point x="494" y="0" type="line"/>
      <point x="568" y="0" type="line"/>
      <point x="568" y="679" type="line"/>
      <point x="500" y="679" type="line"/>
      <point x="500" y="301" type="line" smooth="yes"/>
      <point x="500" y="232"/>
      <point x="506" y="160"/>
      <point x="509" y="92" type="curve"/>
      <point x="505" y="92" type="line"/>
      <point x="431" y="231" type="line"/>
      <point x="169" y="679" type="line"/>
      <point x="95" y="679" type="line"/>
    </contour>
  </outline>
</glyph>
<glyph name="V" format="2">
  <advance width="522"/>
  <unicode hex="0056"/>
  <anchor x="260" y="702" name="aboveUC"/>
  <outline>
    <contour>
      <point x="221" y="0" type="line"/>
      <point x="302" y="0" type="line"/>
      <point x="520" y="679" type="line"/>
      <point x="448" y="679" type="line"/>
      <point x="333" y="300" type="line" smooth="yes"/>
      <point x="308" y="219"/>
      <point x="291" y="155"/>
      <point x="265" y="74" type="curve"/>
      <point x="260" y="74" type="line"/>
      <point x="234" y="155"/>
      <point x="217" y="219"/>
      <point x="193" y="300" type="curve" smooth="yes"/>
      <point x="76" y="679" type="line"/>
      <point x="1" y="679" type="line"/>
    </contour>
  </outline>
</glyph>
<glyph name="Y" format="2">
  <advance width="479"/>
  <unicode hex="0059"/>
  <anchor x="239" y="702" name="aboveUC"/>
  <outline>
    <contour>
      <point x="204" y="0" type="line"/>
      <point x="275" y="0" type="line"/>
      <point x="275" y="268" type="line"/>
      <point x="479" y="679" type="line"/>
      <point x="406" y="679" type="line"/>
      <point x="312" y="479" type="line"/>
      <point x="291" y="429"/>
      <point x="266" y="382"/>
      <point x="242" y="331" type="curve"/>
      <point x="238" y="331" type="line"/>
      <point x="213" y="382"/>
      <point x="192" y="429"/>
      <point x="169" y="479" type="curve"/>
      <point x="75" y="679" type="line"/>
      <point x="0" y="679" type="line"/>
      <point x="204" y="268" type="line"/>
    </contour>
  </outline>
</glyph>
<glyph name="d" format="2">
  <advance width="568"/>
  <unicode hex="0064"/>
  <anchor x="401" y="754" name="aboveLC"/>
  <outline>
    <contour>
      <point x="257" y="-12" type="curve" smooth="yes"/>
      <point x="319" y="-12"/>
      <point x="373" y="21"/>
      <point x="413" y="61" type="curve"/>
      <point x="415" y="61" type="line"/>
      <point x="422" y="0" type="line"/>
      <point x="479" y="0" type="line"/>
      <point x="479" y="739" type="line"/>
      <point x="410" y="739" type="line"/>
      <point x="410" y="541" type="line"/>
      <point x="413" y="452" type="line"/>
      <point x="367" y="490"/>
      <point x="328" y="512"/>
      <point x="269" y="512" type="curve" smooth="yes"/>
      <point x="153" y="512"/>
      <point x="50" y="410"/>
      <point x="50" y="249" type="curve" smooth="yes"/>
      <point x="50" y="81"/>
      <point x="132" y="-12"/>
    </contour>
    <contour>
      <point x="271" y="46" type="curve" smooth="yes"/>
      <point x="176" y="46"/>
      <point x="122" y="124"/>
      <point x="122" y="249" type="curve" smooth="yes"/>
      <point x="122" y="368"/>
      <point x="191" y="453"/>
      <point x="279" y="453" type="curve" smooth="yes"/>
      <point x="323" y="453"/>
      <point x="363" y="437"/>
      <point x="410" y="396" type="curve"/>
      <point x="410" y="120" type="line"/>
      <point x="364" y="71"/>
      <point x="320" y="46"/>
    </contour>
  </outline>
</glyph>
<glyph name="h" format="2">
  <advance width="555"/>
  <unicode hex="0068"/>
  <anchor x="123" y="754" name="aboveLC"/>
  <outline>
    <contour>
      <point x="88" y="0" type="line"/>
      <point x="158" y="0" type="line"/>
      <point x="158" y="367" type="line"/>
      <point x="212" y="423"/>
      <point x="251" y="451"/>
      <point x="305" y="451" type="curve" smooth="yes"/>
      <point x="377" y="451"/>
      <point x="407" y="407"/>
      <point x="407" y="309" type="curve" smooth="yes"/>
      <point x="407" y="0" type="line"/>
      <point x="476" y="0" type="line"/>
      <point x="476" y="318" type="line" smooth="yes"/>
      <point x="476" y="446"/>
      <point x="429" y="512"/>
      <point x="324" y="512" type="curve" smooth="yes"/>
      <point x="256" y="512"/>
      <point x="204" y="474"/>
      <point x="156" y="426" type="curve"/>
      <point x="158" y="531" type="line"/>
      <point x="158" y="739" type="line"/>
      <point x="88" y="739" type="line"/>
    </contour>
  </outline>
</glyph>
<glyph name="i" format="2">
  <advance width="247"/>
  <unicode hex="0069"/>
  <anchor x="122" y="710" name="aboveLC"/>
  <outline>
    <contour>
      <point x="88" y="0" type="line"/>
      <point x="158" y="0" type="line"/>
      <point x="158" y="499" type="line"/>
      <point x="88" y="499" type="line"/>
    </contour>
    <contour>
      <point x="124" y="609" type="curve" smooth="yes"/>
      <point x="153" y="609"/>
      <point x="176" y="630"/>
      <point x="176" y="658" type="curve" smooth="yes"/>
      <point x="176" y="689"/>
      <point x="153" y="708"/>
      <point x="124" y="708" type="curve" smooth="yes"/>
      <point x="95" y="708"/>
      <point x="72" y="689"/>
      <point x="72" y="658" type="curve" smooth="yes"/>
      <point x="72" y="630"/>
      <point x="95" y="609"/>
    </contour>
  </outline>
</glyph>
<glyph name="l" format="2">
  <advance width="255"/>
  <unicode hex="006C"/>
  <anchor x="122" y="754" name="aboveLC"/>
  <outline>
    <contour>
      <point x="167" y="-12" type="curve" smooth="yes"/>
      <point x="186" y="-12"/>
      <point x="198" y="-9"/>
      <point x="209" y="-5" type="curve"/>
      <point x="199" y="48" type="line"/>
      <point x="189" y="46"/>
      <point x="185" y="46"/>
      <point x="181" y="46" type="curve" smooth="yes"/>
      <point x="168" y="46"/>
      <point x="158" y="56"/>
      <point x="158" y="80" type="curve" smooth="yes"/>
      <point x="158" y="739" type="line"/>
      <point x="88" y="739" type="line"/>
      <point x="88" y="87" type="line" smooth="yes"/>
      <point x="88" y="21"/>
      <point x="112" y="-12"/>
    </contour>
  </outline>
</glyph>
<glyph name="w" format="2">
  <advance width="728"/>
  <unicode hex="0077"/>
  <anchor x="364" y="524" name="aboveLC"/>
  <outline>
    <contour>
      <point x="167" y="0" type="line"/>
      <point x="248" y="0" type="line"/>
      <point x="325" y="283" type="line"/>
      <point x="339" y="331"/>
      <point x="350" y="378"/>
      <point x="361" y="428" type="curve"/>
      <point x="365" y="428" type="line"/>
      <point x="378" y="378"/>
      <point x="388" y="332"/>
      <point x="401" y="285" type="curve"/>
      <point x="479" y="0" type="line"/>
      <point x="565" y="0" type="line"/>
      <point x="703" y="499" type="line"/>
      <point x="636" y="499" type="line"/>
      <point x="557" y="197" type="line"/>
      <point x="546" y="150"/>
      <point x="535" y="106"/>
      <point x="524" y="60" type="curve"/>
      <point x="520" y="60" type="line"/>
      <point x="508" y="106"/>
      <point x="497" y="150"/>
      <point x="484" y="197" type="curve"/>
      <point x="401" y="499" type="line"/>
      <point x="330" y="499" type="line"/>
      <point x="247" y="197" type="line"/>
      <point x="235" y="150"/>
      <point x="223" y="106"/>
      <point x="212" y="60" type="curve"/>
      <point x="208" y="60" type="line"/>
      <point x="198" y="106"/>
      <point x="188" y="150"/>
      <point x="177" y="197" type="curve"/>
      <point x="96" y="499" type="line"/>
      <point x="24" y="499" type="line"/>
    </contour>
  </outline>
</glyph>
<glyph name="ordfeminine" format="2">
  <advance width="353"/>
  <unicode hex="00AA"/>
  <outline>
    <contour>
      <point x="141" y="404" type="curve" smooth="yes"/>
      <point x="184" y="404"/>
      <point x="220" y="426"/>
      <point x="248" y="451" type="curve"/>
      <point x="252" y="451" type="line"/>
      <point x="259" y="412" type="line"/>
      <point x="302" y="412" type="line"/>
      <point x="302" y="616" type="line" smooth="yes"/>
      <point x="302" y="700"/>
      <point x="270" y="751"/>
      <point x="189" y="751" type="curve" smooth="yes"/>
      <point x="135" y="751"/>
      <point x="85" y="727"/>
      <point x="54" y="707" type="curve"/>
      <point x="74" y="669" type="line"/>
      <point x="100" y="686"/>
      <point x="143" y="706"/>
      <point x="181" y="706" type="curve" smooth="yes"/>
      <point x="233" y="706"/>
      <point x="247" y="670"/>
      <point x="248" y="622" type="curve"/>
      <point x="104" y="608"/>
      <point x="40" y="572"/>
      <point x="40" y="500" type="curve" smooth="yes"/>
      <point x="40" y="441"/>
      <point x="81" y="404"/>
    </contour>
    <contour>
      <point x="157" y="448" type="curve" smooth="yes"/>
      <point x="118" y="448"/>
      <point x="94" y="465"/>
      <point x="94" y="504" type="curve" smooth="yes"/>
      <point x="94" y="546"/>
      <point x="133" y="575"/>
      <point x="248" y="587" type="curve"/>
      <point x="248" y="493" type="line"/>
      <point x="216" y="462"/>
      <point x="186" y="448"/>
    </contour>
  </outline>
</glyph>
<glyph name="periodcentered" format="2">
  <advance width="245"/>
  <unicode hex="00B7"/>
  <outline>
    <contour>
      <point x="122" y="275" type="curve" smooth="yes"/>
      <point x="151" y="275"/>
      <point x="177" y="297"/>
      <point x="177" y="331" type="curve" smooth="yes"/>
      <point x="177" y="367"/>
      <point x="151" y="390"/>
      <point x="122" y="390" type="curve" smooth="yes"/>
      <point x="93" y="390"/>
      <point x="68" y="367"/>
      <point x="68" y="331" type="curve" smooth="yes"/>
      <point x="68" y="297"/>
      <point x="93" y="275"/>
    </contour>
  </outline>
</glyph>
<glyph name="Thorn" format="2">
  <advance width="594"/>
  <unicode hex="00DE"/>
  <outline>
    <contour>
      <point x="95" y="0" type="line"/>
      <point x="166" y="0" type="line"/>
      <point x="166" y="161" type="line"/>
      <point x="295" y="161" type="line" smooth="yes"/>
      <point x="444" y="161"/>
      <point x="542" y="227"/>
      <point x="542" y="366" type="curve" smooth="yes"/>
      <point x="542" y="511"/>
      <point x="445" y="562"/>
      <point x="295" y="562" type="curve" smooth="yes"/>
      <point x="166" y="562" type="line"/>
      <point x="166" y="679" type="line"/>
      <point x="95" y="679" type="line"/>
    </contour>
    <contour>
      <point x="166" y="219" type="line"/>
      <point x="166" y="504" type="line"/>
      <point x="283" y="504" type="line" smooth="yes"/>
      <point x="409" y="504"/>
      <point x="471" y="470"/>
      <point x="471" y="366" type="curve" smooth="yes"/>
      <point x="471" y="263"/>
      <point x="410" y="219"/>
      <point x="283" y="219" type="curve" smooth="yes"/>
    </contour>
  </outline>
</glyph>
<glyph name="germandbls" format="2">
  <advance width="581"/>
  <unicode hex="00DF"/>
  <outline>
    <contour>
      <point x="391" y="-12" type="curve" smooth="yes"/>
      <point x="488" y="-12"/>
      <point x="551" y="52"/>
      <point x="551" y="137" type="curve" smooth="yes"/>
      <point x="551" y="307"/>
      <point x="342" y="279"/>
      <point x="342" y="387" type="curve" smooth="yes"/>
      <point x="342" y="463"/>
      <point x="439" y="498"/>
      <point x="439" y="603" type="curve" smooth="yes"/>
      <point x="439" y="683"/>
      <point x="382" y="749"/>
      <point x="281" y="749" type="curve" smooth="yes"/>
      <point x="160" y="749"/>
      <point x="88" y="667"/>
      <point x="88" y="539" type="curve" smooth="yes"/>
      <point x="88" y="0" type="line"/>
      <point x="157" y="0" type="line"/>
      <point x="157" y="523" type="line" smooth="yes"/>
      <point x="157" y="636"/>
      <point x="204" y="691"/>
      <point x="279" y="691" type="curve" smooth="yes"/>
      <point x="339" y="691"/>
      <point x="371" y="651"/>
      <point x="371" y="596" type="curve" smooth="yes"/>
      <point x="371" y="507"/>
      <point x="275" y="475"/>
      <point x="275" y="379" type="curve" smooth="yes"/>
      <point x="275" y="233"/>
      <point x="484" y="262"/>
      <point x="484" y="133" type="curve" smooth="yes"/>
      <point x="484" y="86"/>
      <point x="452" y="42"/>
      <point x="390" y="42" type="curve" smooth="yes"/>
      <point x="349" y="42"/>
      <point x="315" y="57"/>
      <point x="277" y="88" type="curve"/>
      <point x="248" y="39" type="line"/>
      <point x="289" y="7"/>
      <point x="336" y="-12"/>
    </contour>
  </outline>
</glyph>
<glyph name="oslash" format="2">
  <advance width="557"/>
  <unicode hex="00F8"/>
  <anchor x="278" y="524" name="aboveLC"/>
  <outline>
    <contour>
      <point x="278" y="-12" type="curve" smooth="yes"/>
      <point x="400" y="-12"/>
      <point x="507" y="83"/>
      <point x="507" y="249" type="curve" smooth="yes"/>
      <point x="507" y="416"/>
      <point x="400" y="512"/>
      <point x="278" y="512" type="curve" smooth="yes"/>
      <point x="157" y="512"/>
      <point x="49" y="416"/>
      <point x="49" y="249" type="curve" smooth="yes"/>
      <point x="49" y="83"/>
      <point x="157" y="-12"/>
    </contour>
    <contour>
      <point x="278" y="44" type="curve" smooth="yes"/>
      <point x="186" y="44"/>
      <point x="119" y="124"/>
      <point x="119" y="251" type="curve" smooth="yes"/>
      <point x="119" y="372"/>
      <point x="186" y="455"/>
      <point x="278" y="455" type="curve" smooth="yes"/>
      <point x="371" y="455"/>
      <point x="438" y="373"/>
      <point x="438" y="246" type="curve" smooth="yes"/>
      <point x="438" y="126"/>
      <point x="370" y="44"/>
    </contour>
    <contour>
      <point x="81" y="-23" type="line"/>
      <point x="509" y="495" type="line"/>
      <point x="476" y="522" type="line"/>
      <point x="47" y="2" type="line"/>
    </contour>
  </outline>
</glyph>
<glyph name="oe" format="2">
  <advance width="870"/>
  <unicode hex="0153"/>
  <anchor x="458" y="524" name="aboveLC"/>
  <outline>
    <contour>
      <point x="272" y="-12" type="curve" smooth="yes"/>
      <point x="356" y="-12"/>
      <point x="421" y="32"/>
      <point x="460" y="120" type="curve"/>
      <point x="497" y="38"/>
      <point x="567" y="-12"/>
      <point x="649" y="-12" type="curve"/>
      <point x="719" y="-12"/>
      <point x="769" y="11"/>
      <point x="811" y="38" type="curve"/>
      <point x="785" y="87" type="line"/>
      <point x="748" y="62"/>
      <point x="708" y="45"/>
      <point x="657" y="45" type="curve" smooth="yes"/>
      <point x="566" y="45"/>
      <point x="493" y="122"/>
      <point x="491" y="235" type="curve"/>
      <point x="828" y="235" type="line"/>
      <point x="830" y="247"/>
      <point x="831" y="262"/>
      <point x="831" y="277" type="curve" smooth="yes"/>
      <point x="831" y="422"/>
      <point x="760" y="512"/>
      <point x="640" y="512" type="curve"/>
      <point x="563" y="512"/>
      <point x="497" y="460"/>
      <point x="460" y="377" type="curve"/>
      <point x="423" y="465"/>
      <point x="351" y="512"/>
      <point x="273" y="512" type="curve" smooth="yes"/>
      <point x="154" y="512"/>
      <point x="49" y="416"/>
      <point x="49" y="249" type="curve" smooth="yes"/>
      <point x="49" y="83"/>
      <point x="153" y="-12"/>
    </contour>
    <contour>
      <point x="273" y="46" type="curve" smooth="yes"/>
      <point x="185" y="46"/>
      <point x="121" y="127"/>
      <point x="121" y="249" type="curve" smooth="yes"/>
      <point x="121" y="370"/>
      <point x="185" y="453"/>
      <point x="273" y="453" type="curve" smooth="yes"/>
      <point x="363" y="453"/>
      <point x="426" y="370"/>
      <point x="426" y="249" type="curve" smooth="yes"/>
      <point x="426" y="127"/>
      <point x="363" y="46"/>
    </contour>
    <contour>
      <point x="491" y="283" type="line"/>
      <point x="501" y="387"/>
      <point x="564" y="455"/>
      <point x="638" y="455" type="curve" smooth="yes"/>
      <point x="719" y="455"/>
      <point x="769" y="395"/>
      <point x="769" y="283" type="curve"/>
    </contour>
  </outline>
</glyph>
<glyph name="breve" format="2">
  <advance width="557"/>
  <unicode hex="02D8"/>
  <anchor x="278" y="727" name="aboveLC"/>
  <outline>
    <contour>
      <point x="278" y="589" type="curve" smooth="yes"/>
      <point x="386" y="589"/>
      <point x="429" y="671"/>
      <point x="436" y="744" type="curve"/>
      <point x="390" y="751" type="line"/>
      <point x="382" y="696"/>
      <point x="348" y="637"/>
      <point x="278" y="637" type="curve" smooth="yes"/>
      <point x="208" y="637"/>
      <point x="174" y="696"/>
      <point x="166" y="751" type="curve"/>
      <point x="120" y="744" type="line"/>
      <point x="127" y="671"/>
      <point x="170" y="589"/>
    </contour>
  </outline>
</glyph>
<glyph name="dotaccent" format="2">
  <advance width="557"/>
  <unicode hex="02D9"/>
  <outline>
    <contour>
      <point x="278" y="609" type="curve" smooth="yes"/>
      <point x="306" y="609"/>
      <point x="327" y="630"/>
      <point x="327" y="660" type="curve" smooth="yes"/>
      <point x="327" y="689"/>
      <point x="306" y="709"/>
      <point x="278" y="709" type="curve" smooth="yes"/>
      <point x="250" y="709"/>
      <point x="229" y="689"/>
      <point x="229" y="660" type="curve" smooth="yes"/>
      <point x="229" y="630"/>
      <point x="250" y="609"/>
    </contour>
  </outline>
</glyph>
<glyph name="hungarumlaut" format="2">
  <advance width="557"/>
  <unicode hex="02DD"/>
  <outline>
    <contour>
      <point x="226" y="587" type="line"/>
      <point x="326" y="756" type="line"/>
      <point x="276" y="782" type="line"/>
      <point x="187" y="605" type="line"/>
    </contour>
    <contour>
      <point x="374" y="587" type="line"/>
      <point x="475" y="756" type="line"/>
      <point x="424" y="782" type="line"/>
      <point x="335" y="605" type="line"/>
    </contour>
  </outline>
</glyph>
<glyph name="dotaccentcomb" format="2">
  <unicode hex="0307"/>
  <note>
dotaccent
</note>
  <anchor x="250" y="720" name="_U"/>
  <outline>
    <contour>
      <point x="205" y="828" type="line"/>
      <point x="205" y="738" type="line"/>
      <point x="295" y="738" type="line"/>
      <point x="295" y="828" type="line"/>
    </contour>
  </outline>
</glyph>
<glyph name="quoteleft" format="2">
  <advance width="266"/>
  <unicode hex="2018"/>
  <outline>
    <contour>
      <point x="77" y="536" type="line"/>
      <point x="77" y="436" type="line"/>
      <point x="177" y="436" type="line"/>
      <point x="177" y="544" type="line"/>
      <point x="141" y="544" type="line"/>
      <point x="185" y="678" type="line"/>
      <point x="143" y="694" type="line"/>
    </contour>
  </outline>
</glyph>
<glyph name="guilsinglleft" format="2">
  <advance width="479"/>
  <unicode hex="2039"/>
  <note>
guilsinglleft
</note>
  <outline>
    <contour>
      <point x="64" y="325" type="line"/>
      <point x="346" y="94" type="line"/>
      <point x="387" y="142" type="line"/>
      <point x="160" y="330" type="line"/>
      <point x="387" y="517" type="line"/>
      <point x="347" y="566" type="line"/>
      <point x="64" y="335" type="line"/>
    </contour>
  </outline>
</glyph>
<glyph name="product" format="2">
  <advance width="687"/>
  <unicode hex="220F"/>
  <outline>
    <contour>
      <point x="93" y="-123" type="line"/>
      <point x="164" y="-123" type="line"/>
      <point x="164" y="597" type="line"/>
      <point x="520" y="597" type="line"/>
      <point x="520" y="-123" type="line"/>
      <point x="593" y="-123" type="line"/>
      <point x="593" y="659" type="line"/>
      <point x="93" y="659" type="line"/>
    </contour>
  </outline>
</glyph>
<glyph name="summation" format="2">
  <advance width="513"/>
  <unicode hex="2211"/>
  <outline>
    <contour>
      <point x="21" y="-123" type="line"/>
      <point x="512" y="-123" type="line"/>
      <point x="512" y="-63" type="line"/>
      <point x="110" y="-63" type="line"/>
      <point x="110" y="-59" type="line"/>
      <point x="351" y="269" type="line"/>
      <point x="121" y="595" type="line"/>
      <point x="121" y="599" type="line"/>
      <point x="481" y="599" type="line"/>
      <point x="481" y="659" type="line"/>
      <point x="33" y="659" type="line"/>
      <point x="33" y="612" type="line"/>
      <point x="275" y="267" type="line"/>
      <point x="21" y="-77" type="line"/>
    </contour>
  </outline>
</glyph>
<glyph name="integral" format="2">
  <advance width="329"/>
  <unicode hex="222B"/>
  <outline>
    <contour>
      <point x="103" y="-163" type="curve" smooth="yes"/>
      <point x="210" y="-163"/>
      <point x="233" y="-63"/>
      <point x="233" y="68" type="curve" smooth="yes"/>
      <point x="233" y="217"/>
      <point x="190" y="437"/>
      <point x="190" y="586" type="curve" smooth="yes"/>
      <point x="190" y="694"/>
      <point x="201" y="759"/>
      <point x="259" y="759" type="curve" smooth="yes"/>
      <point x="273" y="759"/>
      <point x="285" y="757"/>
      <point x="294" y="755" type="curve"/>
      <point x="303" y="808" type="line"/>
      <point x="295" y="812"/>
      <point x="277" y="815"/>
      <point x="258" y="815" type="curve" smooth="yes"/>
      <point x="148" y="815"/>
      <point x="125" y="714"/>
      <point x="125" y="583" type="curve" smooth="yes"/>
      <point x="125" y="434"/>
      <point x="170" y="213"/>
      <point x="170" y="64" type="curve" smooth="yes"/>
      <point x="170" y="-44"/>
      <point x="159" y="-107"/>
      <point x="100" y="-107" type="curve" smooth="yes"/>
      <point x="86" y="-107"/>
      <point x="73" y="-105"/>
      <point x="64" y="-103" type="curve"/>
      <point x="56" y="-156" type="line"/>
      <point x="65" y="-160"/>
      <point x="82" y="-163"/>
    </contour>
  </outline>
</glyph>
<glyph name="lessequal" format="2">
  <advance width="506"/>
  <unicode hex="2264"/>
  <outline>
    <contour>
      <point x="470" y="157" type="line"/>
      <point x="470" y="219" type="line"/>
      <point x="245" y="301" type="line"/>
      <point x="106" y="349" type="line"/>
      <point x="106" y="353" type="line"/>
      <point x="245" y="401" type="line"/>
      <point x="470" y="482" type="line"/>
      <point x="470" y="544" type="line"/>
      <point x="35" y="383" type="line"/>
      <point x="35" y="318" type="line"/>
    </contour>
    <contour>
      <point x="35" y="0" type="line"/>
      <point x="470" y="0" type="line"/>
      <point x="470" y="53" type="line"/>
      <point x="35" y="53" type="line"/>
    </contour>
  </outline>
</glyph>
<glyph name="dottedCircle" format="2">
  <advance width="606"/>
  <unicode hex="25CC"/>
  <anchor x="303" y="574" name="U"/>
  <anchor x="303" y="524" name="aboveLC"/>
  <anchor x="303" y="0" name="baseLC"/>
  <outline>
    <contour>
      <point x="112" y="99" type="curve" smooth="yes"/>
      <point x="133" y="99"/>
      <point x="147" y="114"/>
      <point x="147" y="136" type="curve" smooth="yes"/>
      <point x="147" y="160"/>
      <point x="132" y="173"/>
      <point x="112" y="173" type="curve" smooth="yes"/>
      <point x="93" y="173"/>
      <point x="78" y="160"/>
      <point x="78" y="136" type="curve" smooth="yes"/>
      <point x="78" y="114"/>
      <point x="93" y="99"/>
    </contour>
    <contour>
      <point x="83" y="213" type="curve" smooth="yes"/>
      <point x="105" y="213"/>
      <point x="119" y="226"/>
      <point x="119" y="250" type="curve" smooth="yes"/>
      <point x="119" y="273"/>
      <point x="104" y="285"/>
      <point x="83" y="285" type="curve" smooth="yes"/>
      <point x="65" y="285"/>
      <point x="49" y="273"/>
      <point x="49" y="250" type="curve" smooth="yes"/>
      <point x="49" y="226"/>
      <point x="65" y="213"/>
    </contour>
    <contour>
      <point x="112" y="327" type="curve" smooth="yes"/>
      <point x="133" y="327"/>
      <point x="147" y="341"/>
      <point x="147" y="365" type="curve" smooth="yes"/>
      <point x="147" y="388"/>
      <point x="132" y="400"/>
      <point x="112" y="400" type="curve" smooth="yes"/>
      <point x="93" y="400"/>
      <point x="78" y="388"/>
      <point x="78" y="365" type="curve" smooth="yes"/>
      <point x="78" y="341"/>
      <point x="93" y="327"/>
    </contour>
    <contour>
      <point x="193" y="15" type="curve" smooth="yes"/>
      <point x="214" y="15"/>
      <point x="228" y="28"/>
      <point x="228" y="53" type="curve" smooth="yes"/>
      <point x="228" y="75"/>
      <point x="212" y="87"/>
      <point x="193" y="87" type="curve" smooth="yes"/>
      <point x="174" y="87"/>
      <point x="159" y="75"/>
      <point x="159" y="53" type="curve" smooth="yes"/>
      <point x="159" y="28"/>
      <point x="174" y="15"/>
    </contour>
    <contour>
      <point x="193" y="411" type="curve" smooth="yes"/>
      <point x="214" y="411"/>
      <point x="228" y="425"/>
      <point x="228" y="447" type="curve" smooth="yes"/>
      <point x="228" y="472"/>
      <point x="212" y="484"/>
      <point x="193" y="484" type="curve" smooth="yes"/>
      <point x="174" y="484"/>
      <point x="159" y="472"/>
      <point x="159" y="447" type="curve" smooth="yes"/>
      <point x="159" y="425"/>
      <point x="174" y="411"/>
    </contour>
    <contour>
      <point x="302" y="-12" type="curve" smooth="yes"/>
      <point x="323" y="-12"/>
      <point x="338" y="0"/>
      <point x="338" y="24" type="curve" smooth="yes"/>
      <point x="338" y="47"/>
      <point x="323" y="59"/>
      <point x="302" y="59" type="curve" smooth="yes"/>
      <point x="284" y="59"/>
      <point x="268" y="47"/>
      <point x="268" y="24" type="curve" smooth="yes"/>
      <point x="268" y="0"/>
      <point x="284" y="-12"/>
    </contour>
    <contour>
      <point x="302" y="438" type="curve" smooth="yes"/>
      <point x="323" y="438"/>
      <point x="338" y="452"/>
      <point x="338" y="475" type="curve" smooth="yes"/>
      <point x="338" y="498"/>
      <point x="323" y="512"/>
      <point x="302" y="512" type="curve" smooth="yes"/>
      <point x="284" y="512"/>
      <point x="268" y="498"/>
      <point x="268" y="475" type="curve" smooth="yes"/>
      <point x="268" y="452"/>
      <point x="284" y="438"/>
    </contour>
    <contour>
      <point x="411" y="15" type="curve" smooth="yes"/>
      <point x="433" y="15"/>
      <point x="447" y="28"/>
      <point x="447" y="53" type="curve" smooth="yes"/>
      <point x="447" y="75"/>
      <point x="431" y="87"/>
      <point x="411" y="87" type="curve" smooth="yes"/>
      <point x="394" y="87"/>
      <point x="378" y="75"/>
      <point x="378" y="53" type="curve" smooth="yes"/>
      <point x="378" y="28"/>
      <point x="394" y="15"/>
    </contour>
    <contour>
      <point x="411" y="410" type="curve" smooth="yes"/>
      <point x="433" y="410"/>
      <point x="447" y="425"/>
      <point x="447" y="447" type="curve" smooth="yes"/>
      <point x="447" y="471"/>
      <point x="431" y="483"/>
      <point x="411" y="483" type="curve" smooth="yes"/>
      <point x="394" y="483"/>
      <point x="378" y="471"/>
      <point x="378" y="447" type="curve" smooth="yes"/>
      <point x="378" y="425"/>
      <point x="394" y="410"/>
    </contour>
    <contour>
      <point x="493" y="99" type="curve" smooth="yes"/>
      <point x="515" y="99"/>
      <point x="528" y="114"/>
      <point x="528" y="136" type="curve" smooth="yes"/>
      <point x="528" y="160"/>
      <point x="513" y="173"/>
      <point x="493" y="173" type="curve" smooth="yes"/>
      <point x="475" y="173"/>
      <point x="459" y="160"/>
      <point x="459" y="136" type="curve" smooth="yes"/>
      <point x="459" y="114"/>
      <point x="475" y="99"/>
    </contour>
    <contour>
      <point x="522" y="213" type="curve" smooth="yes"/>
      <point x="542" y="213"/>
      <point x="557" y="226"/>
      <point x="557" y="250" type="curve" smooth="yes"/>
      <point x="557" y="273"/>
      <point x="540" y="285"/>
      <point x="522" y="285" type="curve" smooth="yes"/>
      <point x="502" y="285"/>
      <point x="487" y="273"/>
      <point x="487" y="250" type="curve" smooth="yes"/>
      <point x="487" y="226"/>
      <point x="502" y="213"/>
    </contour>
    <contour>
      <point x="493" y="326" type="curve" smooth="yes"/>
      <point x="515" y="326"/>
      <point x="528" y="340"/>
      <point x="528" y="363" type="curve" smooth="yes"/>
      <point x="528" y="386"/>
      <point x="513" y="399"/>
      <point x="493" y="399" type="curve" smooth="yes"/>
      <point x="475" y="399"/>
      <point x="459" y="386"/>
      <point x="459" y="363" type="curve" smooth="yes"/>
      <point x="459" y="340"/>
      <point x="475" y="326"/>
    </contour>
  </outline>
</glyph>
<glyph name="Arkab-beria" format="2">
  <advance width="785"/>
  <unicode hex="16EA0"/>
  <anchor x="393" y="720" name="U"/>
  <outline>
    <contour>
      <point x="67" y="-48" type="line"/>
      <point x="196" y="-146" type="line"/>
      <point x="728" y="545" type="line"/>
      <point x="728" y="668" type="line"/>
      <point x="50" y="668" type="line"/>
      <point x="50" y="545" type="line"/>
      <point x="595" y="-146" type="line"/>
      <point x="718" y="-40" type="line"/>
      <point x="171" y="651" type="line"/>
      <point x="134" y="518" type="line"/>
      <point x="657" y="518" type="line"/>
      <point x="607" y="652" type="line"/>
    </contour>
  </outline>
</glyph>
<glyph name="Basigna-beria" format="2">
  <advance width="831"/>
  <unicode hex="16EA1"/>
  <outline>
    <contour>
      <point x="710" y="674" type="line"/>
      <point x="376" y="-66" type="line"/>
      <point x="458" y="-66" type="line"/>
      <point x="125" y="674" type="line"/>
      <point x="-2" y="609" type="line"/>
      <point x="337" y="-136" type="line"/>
      <point x="493" y="-136" type="line"/>
      <point x="833" y="609" type="line"/>
    </contour>
    <contour>
      <point x="348" y="353" type="line"/>
      <point x="484" y="353" type="line"/>
      <point x="484" y="674" type="line"/>
      <point x="348" y="674" type="line"/>
    </contour>
    <contour>
      <point x="416" y="444" type="curve" smooth="yes"/>
      <point x="340" y="444"/>
      <point x="284" y="430"/>
      <point x="219" y="403" type="curve"/>
      <point x="245" y="272" type="line"/>
      <point x="313" y="302"/>
      <point x="363" y="312"/>
      <point x="414" y="312" type="curve" smooth="yes"/>
      <point x="474" y="312"/>
      <point x="535" y="296"/>
      <point x="589" y="268" type="curve"/>
      <point x="613" y="399" type="line"/>
      <point x="560" y="427"/>
      <point x="492" y="444"/>
    </contour>
  </outline>
</glyph>
<glyph name="Darbai-beria" format="2">
  <advance width="795"/>
  <unicode hex="16EA2"/>
  <outline>
    <contour>
      <point x="289" y="-136" type="curve" smooth="yes"/>
      <point x="479" y="-136" type="line" smooth="yes"/>
      <point x="576" y="-136"/>
      <point x="667" y="-50"/>
      <point x="667" y="55" type="curve" smooth="yes"/>
      <point x="667" y="668" type="line"/>
      <point x="162" y="668" type="line"/>
      <point x="162" y="443" type="line"/>
      <point x="330" y="443" type="line"/>
      <point x="330" y="650" type="line"/>
      <point x="215" y="518" type="line"/>
      <point x="614" y="518" type="line"/>
      <point x="499" y="650" type="line"/>
      <point x="499" y="88" type="line" smooth="yes"/>
      <point x="499" y="27"/>
      <point x="486" y="14"/>
      <point x="423" y="14" type="curve" smooth="yes"/>
      <point x="345" y="14" type="line" smooth="yes"/>
      <point x="282" y="14"/>
      <point x="269" y="27"/>
      <point x="269" y="88" type="curve" smooth="yes"/>
      <point x="269" y="102" type="line"/>
      <point x="101" y="102" type="line"/>
      <point x="101" y="55" type="line" smooth="yes"/>
      <point x="101" y="-50"/>
      <point x="192" y="-136"/>
    </contour>
  </outline>
</glyph>
<glyph name="Eh-beria" format="2">
  <advance width="757"/>
  <unicode hex="16EA3"/>
  <anchor x="402" y="720" name="U"/>
  <outline>
    <contour>
      <point x="297" y="-3" type="line"/>
      <point x="297" y="-136" type="line"/>
      <point x="655" y="-136" type="line"/>
      <point x="655" y="-3" type="line"/>
      <point x="575" y="-3" type="line"/>
      <point x="575" y="220" type="line"/>
      <point x="468" y="220" type="line" smooth="yes"/>
      <point x="323" y="220"/>
      <point x="220" y="268"/>
      <point x="220" y="389" type="curve" smooth="yes"/>
      <point x="220" y="507"/>
      <point x="330" y="552"/>
      <point x="412" y="552" type="curve" smooth="yes"/>
      <point x="504" y="552"/>
      <point x="577" y="518"/>
      <point x="619" y="495" type="curve"/>
      <point x="689" y="610" type="line"/>
      <point x="610" y="655"/>
      <point x="525" y="685"/>
      <point x="410" y="685" type="curve" smooth="yes"/>
      <point x="202" y="685"/>
      <point x="52" y="584"/>
      <point x="52" y="389" type="curve" smooth="yes"/>
      <point x="52" y="191"/>
      <point x="225" y="87"/>
      <point x="376" y="87" type="curve" smooth="yes"/>
      <point x="407" y="87" type="line"/>
      <point x="407" y="-3" type="line"/>
    </contour>
  </outline>
</glyph>
<glyph name="Fitko-beria" format="2">
  <advance width="786"/>
  <unicode hex="16EA4"/>
  <outline>
    <contour>
      <point x="486" y="-136" type="curve" smooth="yes"/>
      <point x="708" y="-136" type="line"/>
      <point x="708" y="668" type="line"/>
      <point x="486" y="668" type="line" smooth="yes"/>
      <point x="256" y="668"/>
      <point x="74" y="607"/>
      <point x="74" y="265" type="curve" smooth="yes"/>
      <point x="74" y="-77"/>
      <point x="256" y="-136"/>
    </contour>
    <contour>
      <point x="216" y="265" type="curve" smooth="yes"/>
      <point x="216" y="483"/>
      <point x="300" y="536"/>
      <point x="461" y="536" type="curve" smooth="yes"/>
      <point x="566" y="536" type="line"/>
      <point x="566" y="-4" type="line"/>
      <point x="461" y="-4" type="line" smooth="yes"/>
      <point x="299" y="-4"/>
      <point x="216" y="48"/>
    </contour>
    <contour>
      <point x="331" y="205" type="line"/>
      <point x="444" y="205" type="line"/>
      <point x="444" y="326" type="line"/>
      <point x="331" y="326" type="line"/>
    </contour>
  </outline>
</glyph>
<glyph name="Goway-beria" format="2">
  <advance width="845"/>
  <unicode hex="16EA5"/>
  <outline>
    <contour>
      <point x="337" y="118" type="line"/>
      <point x="337" y="-136" type="line"/>
      <point x="505" y="-136" type="line"/>
      <point x="505" y="118" type="line"/>
    </contour>
    <contour>
      <point x="743" y="-71" type="curve"/>
      <point x="785" y="84" type="line"/>
      <point x="501" y="139"/>
      <point x="244" y="312"/>
      <point x="244" y="412" type="curve" smooth="yes"/>
      <point x="244" y="481"/>
      <point x="305" y="535"/>
      <point x="420" y="535" type="curve" smooth="yes"/>
      <point x="535" y="535"/>
      <point x="596" y="481"/>
      <point x="596" y="412" type="curve" smooth="yes"/>
      <point x="596" y="313"/>
      <point x="341" y="139"/>
      <point x="58" y="84" type="curve"/>
      <point x="100" y="-71" type="line"/>
      <point x="386" y="-5"/>
      <point x="766" y="199"/>
      <point x="766" y="432" type="curve" smooth="yes"/>
      <point x="766" y="576"/>
      <point x="628" y="685"/>
      <point x="420" y="685" type="curve" smooth="yes"/>
      <point x="212" y="685"/>
      <point x="74" y="576"/>
      <point x="74" y="432" type="curve" smooth="yes"/>
      <point x="74" y="192"/>
      <point x="451" y="-4"/>
    </contour>
  </outline>
</glyph>
<glyph name="Hirdeabo-beria" format="2">
  <advance width="850"/>
  <unicode hex="16EA6"/>
  <outline>
    <contour>
      <point x="108" y="668" type="line"/>
      <point x="108" y="-136" type="line"/>
      <point x="276" y="-136" type="line"/>
      <point x="276" y="650" type="line"/>
      <point x="161" y="535" type="line"/>
      <point x="689" y="535" type="line"/>
      <point x="574" y="650" type="line"/>
      <point x="574" y="-136" type="line"/>
      <point x="742" y="-136" type="line"/>
      <point x="742" y="668" type="line"/>
    </contour>
  </outline>
</glyph>
<glyph name="I-beria" format="2">
  <advance width="887"/>
  <unicode hex="16EA7"/>
  <anchor x="453" y="720" name="U"/>
  <outline>
    <contour>
      <point x="485" y="-136" type="line"/>
      <point x="864" y="-136" type="line"/>
      <point x="864" y="-4" type="line"/>
      <point x="665" y="-4" type="line"/>
      <point x="750" y="-118" type="line"/>
      <point x="750" y="668" type="line"/>
      <point x="608" y="668" type="line"/>
      <point x="577" y="566"/>
      <point x="417" y="224"/>
      <point x="301" y="224" type="curve" smooth="yes"/>
      <point x="250" y="224"/>
      <point x="206" y="269"/>
      <point x="206" y="379" type="curve" smooth="yes"/>
      <point x="206" y="487"/>
      <point x="239" y="526"/>
      <point x="354" y="561" type="curve"/>
      <point x="308" y="685" type="line"/>
      <point x="165" y="638"/>
      <point x="64" y="582"/>
      <point x="64" y="379" type="curve" smooth="yes"/>
      <point x="64" y="148"/>
      <point x="183" y="92"/>
      <point x="291" y="92" type="curve" smooth="yes"/>
      <point x="456" y="92"/>
      <point x="581" y="297"/>
      <point x="631" y="426" type="curve"/>
      <point x="667" y="426" type="line"/>
      <point x="608" y="471" type="line"/>
      <point x="608" y="-118" type="line"/>
      <point x="687" y="-4" type="line"/>
      <point x="485" y="-4" type="line"/>
    </contour>
    <contour>
      <point x="547" y="77" type="line"/>
      <point x="805" y="77" type="line"/>
      <point x="805" y="209" type="line"/>
      <point x="547" y="209" type="line"/>
    </contour>
  </outline>
</glyph>
<glyph name="Djai-beria" format="2">
  <advance width="887"/>
  <unicode hex="16EA8"/>
  <outline>
    <contour>
      <point x="327" y="448" type="curve" smooth="yes"/>
      <point x="327" y="271"/>
      <point x="234" y="132"/>
      <point x="31" y="-82" type="curve"/>
      <point x="131" y="-176" type="line"/>
      <point x="304" y="1"/>
      <point x="467" y="232"/>
      <point x="467" y="442" type="curve" smooth="yes"/>
      <point x="467" y="588"/>
      <point x="400" y="685"/>
      <point x="268" y="685" type="curve" smooth="yes"/>
      <point x="146" y="685"/>
      <point x="58" y="605"/>
      <point x="58" y="464" type="curve" smooth="yes"/>
      <point x="58" y="223"/>
      <point x="378" y="-51"/>
      <point x="621" y="-136" type="curve"/>
      <point x="753" y="-136" type="line"/>
      <point x="753" y="580" type="line"/>
      <point x="739" y="541" type="line"/>
      <point x="915" y="541" type="line"/>
      <point x="915" y="668" type="line"/>
      <point x="616" y="668" type="line"/>
      <point x="616" y="-32" type="line"/>
      <point x="644" y="-2" type="line"/>
      <point x="418" y="96"/>
      <point x="198" y="296"/>
      <point x="198" y="475" type="curve" smooth="yes"/>
      <point x="198" y="527"/>
      <point x="225" y="558"/>
      <point x="261" y="558" type="curve" smooth="yes"/>
      <point x="300" y="558"/>
      <point x="327" y="523"/>
    </contour>
  </outline>
</glyph>
<glyph name="Kobo-beria" format="2">
  <advance width="788"/>
  <unicode hex="16EA9"/>
  <outline>
    <contour>
      <point x="408" y="-156" type="curve" smooth="yes"/>
      <point x="563" y="-156"/>
      <point x="735" y="-62"/>
      <point x="735" y="106" type="curve" smooth="yes"/>
      <point x="735" y="247"/>
      <point x="597" y="355"/>
      <point x="417" y="355" type="curve" smooth="yes"/>
      <point x="386" y="355" type="line"/>
      <point x="467" y="296" type="line"/>
      <point x="467" y="650" type="line"/>
      <point x="388" y="541" type="line"/>
      <point x="594" y="541" type="line"/>
      <point x="594" y="668" type="line"/>
      <point x="205" y="668" type="line"/>
      <point x="205" y="541" type="line"/>
      <point x="410" y="541" type="line"/>
      <point x="330" y="650" type="line"/>
      <point x="330" y="227" type="line"/>
      <point x="403" y="227" type="line" smooth="yes"/>
      <point x="522" y="227"/>
      <point x="595" y="172"/>
      <point x="595" y="102" type="curve" smooth="yes"/>
      <point x="595" y="43"/>
      <point x="523" y="-29"/>
      <point x="407" y="-29" type="curve" smooth="yes"/>
      <point x="303" y="-29"/>
      <point x="190" y="17"/>
      <point x="167" y="139" type="curve"/>
      <point x="41" y="96" type="line"/>
      <point x="76" y="-74"/>
      <point x="237" y="-156"/>
    </contour>
  </outline>
</glyph>
<glyph name="Lakko-beria" format="2">
  <advance width="550"/>
  <unicode hex="16EAA"/>
  <outline>
    <contour>
      <point x="25" y="-136" type="line"/>
      <point x="525" y="-136" type="line"/>
      <point x="525" y="-9" type="line"/>
      <point x="314" y="-9" type="line"/>
      <point x="344" y="-48" type="line"/>
      <point x="344" y="580" type="line"/>
      <point x="314" y="541" type="line"/>
      <point x="463" y="541" type="line"/>
      <point x="463" y="668" type="line"/>
      <point x="88" y="668" type="line"/>
      <point x="88" y="541" type="line"/>
      <point x="236" y="541" type="line"/>
      <point x="207" y="580" type="line"/>
      <point x="207" y="-48" type="line"/>
      <point x="236" y="-9" type="line"/>
      <point x="25" y="-9" type="line"/>
    </contour>
  </outline>
</glyph>
<glyph name="Meri-beria" format="2">
  <advance width="838"/>
  <unicode hex="16EAB"/>
  <outline>
    <contour>
      <point x="184" y="-152" type="line"/>
      <point x="204" y="-29"/>
      <point x="256" y="179"/>
      <point x="400" y="332" type="curve" smooth="yes"/>
      <point x="503" y="442"/>
      <point x="623" y="509"/>
      <point x="764" y="563" type="curve"/>
      <point x="700" y="684" type="line"/>
      <point x="555" y="628"/>
      <point x="418" y="550"/>
      <point x="300" y="426" type="curve" smooth="yes"/>
      <point x="117" y="233"/>
      <point x="65" y="-34"/>
      <point x="50" y="-132" type="curve"/>
    </contour>
    <contour>
      <point x="629" y="142" type="line"/>
      <point x="743" y="218" type="line"/>
      <point x="538" y="549" type="line"/>
      <point x="424" y="473" type="line"/>
    </contour>
  </outline>
</glyph>
<glyph name="Nini-beria" format="2">
  <advance width="785"/>
  <unicode hex="16EAC"/>
  <outline>
    <contour>
      <point x="391" y="347" type="curve" smooth="yes"/>
      <point x="186" y="347"/>
      <point x="45" y="226"/>
      <point x="45" y="88" type="curve" smooth="yes"/>
      <point x="45" y="-61"/>
      <point x="197" y="-171"/>
      <point x="392" y="-171" type="curve" smooth="yes"/>
      <point x="587" y="-171"/>
      <point x="740" y="-61"/>
      <point x="740" y="88" type="curve" smooth="yes"/>
      <point x="740" y="226"/>
      <point x="600" y="347"/>
    </contour>
    <contour>
      <point x="391" y="214" type="curve" smooth="yes"/>
      <point x="514" y="214"/>
      <point x="590" y="161"/>
      <point x="590" y="88" type="curve" smooth="yes"/>
      <point x="590" y="16"/>
      <point x="514" y="-38"/>
      <point x="391" y="-38" type="curve" smooth="yes"/>
      <point x="268" y="-38"/>
      <point x="195" y="16"/>
      <point x="195" y="88" type="curve" smooth="yes"/>
      <point x="195" y="159"/>
      <point x="268" y="214"/>
    </contour>
    <contour>
      <point x="471" y="-118" type="line"/>
      <point x="471" y="535" type="line"/>
      <point x="614" y="535" type="line"/>
      <point x="614" y="668" type="line"/>
      <point x="170" y="668" type="line"/>
      <point x="170" y="535" type="line"/>
      <point x="313" y="535" type="line"/>
      <point x="313" y="-118" type="line"/>
    </contour>
  </outline>
</glyph>
<glyph name="Gna-beria" format="2">
  <advance width="757"/>
  <unicode hex="16EAD"/>
  <outline>
    <contour>
      <point x="473" y="362" type="line"/>
      <point x="518" y="372"/>
      <point x="584" y="418"/>
      <point x="584" y="501" type="curve" smooth="yes"/>
      <point x="584" y="613"/>
      <point x="480" y="668"/>
      <point x="329" y="668" type="curve" smooth="yes"/>
      <point x="95" y="668" type="line"/>
      <point x="95" y="30" type="line"/>
      <point x="263" y="30" type="line"/>
      <point x="263" y="283" type="line"/>
      <point x="350" y="283" type="line" smooth="yes"/>
      <point x="493" y="283"/>
      <point x="544" y="236"/>
      <point x="544" y="166" type="curve" smooth="yes"/>
      <point x="544" y="73"/>
      <point x="445" y="-3"/>
      <point x="327" y="-3" type="curve" smooth="yes"/>
      <point x="308" y="-3" type="line"/>
      <point x="308" y="-136" type="line"/>
      <point x="720" y="-136" type="line"/>
      <point x="720" y="-3" type="line"/>
      <point x="535" y="-3" type="line"/>
      <point x="596" y="-9" type="line"/>
      <point x="630" y="3"/>
      <point x="712" y="70"/>
      <point x="712" y="187" type="curve" smooth="yes"/>
      <point x="712" y="327"/>
      <point x="556" y="404"/>
      <point x="453" y="400" type="curve"/>
    </contour>
    <contour>
      <point x="318" y="406" type="curve" smooth="yes"/>
      <point x="263" y="406" type="line"/>
      <point x="263" y="545" type="line"/>
      <point x="315" y="545" type="line" smooth="yes"/>
      <point x="396" y="545"/>
      <point x="416" y="519"/>
      <point x="416" y="487" type="curve" smooth="yes"/>
      <point x="416" y="440"/>
      <point x="387" y="406"/>
    </contour>
  </outline>
</glyph>
<glyph name="Ngay-beria" format="2">
  <advance width="835"/>
  <unicode hex="16EAE"/>
  <outline>
    <contour>
      <point x="313" y="559" type="line"/>
      <point x="565" y="-136" type="line"/>
      <point x="811" y="-136" type="line"/>
      <point x="811" y="-4" type="line"/>
      <point x="597" y="-4" type="line"/>
      <point x="705" y="-114" type="line"/>
      <point x="430" y="646" type="line"/>
      <point x="352" y="536" type="line"/>
      <point x="707" y="536" type="line"/>
      <point x="707" y="668" type="line"/>
      <point x="312" y="668" type="line"/>
      <point x="65" y="-18" type="line"/>
      <point x="65" y="-136" type="line"/>
      <point x="325" y="-136" type="line"/>
      <point x="325" y="-4" type="line"/>
      <point x="99" y="-4" type="line"/>
      <point x="181" y="-115" type="line"/>
      <point x="424" y="559" type="line"/>
    </contour>
  </outline>
</glyph>
<glyph name="Oi-beria" format="2">
  <advance width="839"/>
  <unicode hex="16EAF"/>
  <anchor x="453" y="720" name="U"/>
  <outline>
    <contour>
      <point x="16" y="-3" type="line"/>
      <point x="16" y="-136" type="line"/>
      <point x="261" y="-136" type="line"/>
      <point x="502" y="425" type="line"/>
      <point x="405" y="425" type="line"/>
      <point x="655" y="-115" type="line"/>
      <point x="708" y="-3" type="line"/>
      <point x="512" y="-3" type="line"/>
      <point x="512" y="-136" type="line"/>
      <point x="771" y="-136" type="line"/>
      <point x="771" y="-8" type="line"/>
      <point x="547" y="475" type="line"/>
      <point x="547" y="479" type="line"/>
      <point x="723" y="479" type="line"/>
      <point x="723" y="612" type="line"/>
      <point x="537" y="612" type="line"/>
      <point x="537" y="684" type="line"/>
      <point x="369" y="684" type="line"/>
      <point x="369" y="612" type="line"/>
      <point x="189" y="612" type="line"/>
      <point x="189" y="479" type="line"/>
      <point x="359" y="479" type="line"/>
      <point x="359" y="473" type="line"/>
      <point x="107" y="-114" type="line"/>
      <point x="209" y="-3" type="line"/>
    </contour>
  </outline>
</glyph>
<glyph name="Pi-beria" format="2">
  <advance width="844"/>
  <unicode hex="16EB0"/>
  <outline>
    <contour>
      <point x="502" y="-114" type="line"/>
      <point x="833" y="617" type="line"/>
      <point x="706" y="674" type="line"/>
      <point x="384" y="-47" type="line"/>
      <point x="481" y="-47" type="line"/>
      <point x="142" y="674" type="line"/>
      <point x="16" y="608" type="line"/>
      <point x="360" y="-114" type="line"/>
      <point x="298" y="-73" type="line"/>
      <point x="570" y="-73" type="line"/>
    </contour>
    <contour>
      <point x="493" y="370" type="line"/>
      <point x="493" y="674" type="line"/>
      <point x="357" y="674" type="line"/>
      <point x="357" y="370" type="line"/>
    </contour>
    <contour>
      <point x="238" y="415" type="curve"/>
      <point x="266" y="285" type="line"/>
      <point x="330" y="314"/>
      <point x="374" y="328"/>
      <point x="426" y="328" type="curve" smooth="yes"/>
      <point x="483" y="328"/>
      <point x="532" y="320"/>
      <point x="594" y="291" type="curve"/>
      <point x="618" y="422" type="line"/>
      <point x="565" y="447"/>
      <point x="502" y="460"/>
      <point x="426" y="460" type="curve" smooth="yes"/>
      <point x="361" y="460"/>
      <point x="299" y="444"/>
    </contour>
    <contour>
      <point x="681" y="-4" type="line"/>
      <point x="184" y="-4" type="line"/>
      <point x="184" y="-136" type="line"/>
      <point x="681" y="-136" type="line"/>
    </contour>
  </outline>
</glyph>
<glyph name="Erigo-beria" format="2">
  <advance width="868"/>
  <unicode hex="16EB1"/>
  <outline>
    <contour>
      <point x="229" y="-136" type="line"/>
      <point x="639" y="-136" type="line"/>
      <point x="639" y="-4" type="line"/>
      <point x="505" y="-4" type="line"/>
      <point x="505" y="240" type="line"/>
      <point x="780" y="240" type="line"/>
      <point x="780" y="620" type="line"/>
      <point x="638" y="620" type="line"/>
      <point x="638" y="372" type="line"/>
      <point x="473" y="372" type="line"/>
      <point x="505" y="345" type="line"/>
      <point x="505" y="675" type="line"/>
      <point x="363" y="675" type="line"/>
      <point x="363" y="345" type="line"/>
      <point x="395" y="372" type="line"/>
      <point x="230" y="372" type="line"/>
      <point x="230" y="620" type="line"/>
      <point x="88" y="620" type="line"/>
      <point x="88" y="240" type="line"/>
      <point x="363" y="240" type="line"/>
      <point x="363" y="-4" type="line"/>
      <point x="229" y="-4" type="line"/>
    </contour>
  </outline>
</glyph>
<glyph name="Erigo-Tamura-beria" format="2">
  <advance width="868"/>
  <unicode hex="16EB2"/>
  <outline>
    <contour>
      <point x="12" y="-136" type="line"/>
      <point x="307" y="-136" type="line" smooth="yes"/>
      <point x="419" y="-136"/>
      <point x="502" y="-40"/>
      <point x="502" y="65" type="curve" smooth="yes"/>
      <point x="502" y="242" type="line"/>
      <point x="778" y="242" type="line"/>
      <point x="778" y="630" type="line"/>
      <point x="641" y="630" type="line"/>
      <point x="641" y="369" type="line"/>
      <point x="423" y="369" type="line"/>
      <point x="502" y="282" type="line"/>
      <point x="502" y="675" type="line"/>
      <point x="365" y="675" type="line"/>
      <point x="365" y="282" type="line"/>
      <point x="445" y="369" type="line"/>
      <point x="227" y="369" type="line"/>
      <point x="227" y="630" type="line"/>
      <point x="90" y="630" type="line"/>
      <point x="90" y="242" type="line"/>
      <point x="365" y="242" type="line"/>
      <point x="365" y="100" type="line" smooth="yes"/>
      <point x="365" y="19"/>
      <point x="340" y="-9"/>
      <point x="277" y="-9" type="curve" smooth="yes"/>
      <point x="12" y="-9" type="line"/>
    </contour>
  </outline>
</glyph>
<glyph name="Seri-beria" format="2">
  <advance width="664"/>
  <unicode hex="16EB3"/>
  <outline>
    <contour>
      <point x="160" y="254" type="line"/>
      <point x="598" y="254" type="line"/>
      <point x="598" y="397" type="line"/>
      <point x="160" y="397" type="line"/>
    </contour>
    <contour>
      <point x="55" y="-136" type="line"/>
      <point x="275" y="-136" type="line" smooth="yes"/>
      <point x="372" y="-136"/>
      <point x="463" y="-50"/>
      <point x="463" y="55" type="curve" smooth="yes"/>
      <point x="463" y="650" type="line"/>
      <point x="368" y="518" type="line"/>
      <point x="620" y="518" type="line"/>
      <point x="620" y="668" type="line"/>
      <point x="138" y="668" type="line"/>
      <point x="138" y="518" type="line"/>
      <point x="390" y="518" type="line"/>
      <point x="295" y="650" type="line"/>
      <point x="295" y="118" type="line" smooth="yes"/>
      <point x="295" y="37"/>
      <point x="272" y="14"/>
      <point x="209" y="14" type="curve" smooth="yes"/>
      <point x="55" y="14" type="line"/>
    </contour>
  </outline>
</glyph>
<glyph name="Shep-beria" format="2">
  <advance width="684"/>
  <unicode hex="16EB4"/>
  <outline>
    <contour>
      <point x="60" y="-136" type="line"/>
      <point x="240" y="-136" type="line" smooth="yes"/>
      <point x="360" y="-136"/>
      <point x="453" y="-30"/>
      <point x="453" y="92" type="curve" smooth="yes"/>
      <point x="453" y="650" type="line"/>
      <point x="373" y="541" type="line"/>
      <point x="625" y="541" type="line"/>
      <point x="625" y="668" type="line"/>
      <point x="143" y="668" type="line"/>
      <point x="143" y="541" type="line"/>
      <point x="395" y="541" type="line"/>
      <point x="316" y="650" type="line"/>
      <point x="316" y="98" type="line" smooth="yes"/>
      <point x="316" y="27"/>
      <point x="287" y="-9"/>
      <point x="214" y="-9" type="curve" smooth="yes"/>
      <point x="60" y="-9" type="line"/>
    </contour>
    <contour>
      <point x="160" y="324" type="line"/>
      <point x="598" y="324" type="line"/>
      <point x="598" y="451" type="line"/>
      <point x="160" y="451" type="line"/>
    </contour>
    <contour>
      <point x="160" y="119" type="line"/>
      <point x="598" y="119" type="line"/>
      <point x="598" y="246" type="line"/>
      <point x="160" y="246" type="line"/>
    </contour>
  </outline>
</glyph>
<glyph name="Tatasoue-beria" format="2">
  <advance width="710"/>
  <unicode hex="16EB5"/>
  <outline>
    <contour>
      <point x="429" y="332" type="line"/>
      <point x="124" y="674" type="line"/>
      <point x="12" y="558" type="line"/>
      <point x="335" y="196" type="line"/>
    </contour>
    <contour>
      <point x="521" y="674" type="line"/>
      <point x="163" y="-7" type="line"/>
      <point x="163" y="-136" type="line"/>
      <point x="624" y="-136" type="line"/>
      <point x="624" y="-3" type="line"/>
      <point x="235" y="-3" type="line"/>
      <point x="292" y="-112" type="line"/>
      <point x="668" y="603" type="line"/>
    </contour>
  </outline>
</glyph>
<glyph name="Ui-beria" format="2">
  <advance width="664"/>
  <unicode hex="16EB6"/>
  <anchor x="262" y="720" name="U"/>
  <outline>
    <contour>
      <point x="139" y="650" type="line"/>
      <point x="139" y="-136" type="line"/>
      <point x="283" y="-136" type="line" smooth="yes"/>
      <point x="469" y="-136"/>
      <point x="609" y="-39"/>
      <point x="609" y="100" type="curve" smooth="yes"/>
      <point x="609" y="238"/>
      <point x="469" y="334"/>
      <point x="283" y="334" type="curve" smooth="yes"/>
      <point x="216" y="334" type="line"/>
      <point x="276" y="271" type="line"/>
      <point x="276" y="668" type="line"/>
      <point x="12" y="668" type="line"/>
      <point x="12" y="541" type="line"/>
      <point x="238" y="541" type="line"/>
    </contour>
    <contour>
      <point x="281" y="-9" type="curve" smooth="yes"/>
      <point x="216" y="-9" type="line"/>
      <point x="276" y="-118" type="line"/>
      <point x="276" y="298" type="line"/>
      <point x="216" y="207" type="line"/>
      <point x="281" y="207" type="line" smooth="yes"/>
      <point x="411" y="207"/>
      <point x="469" y="167"/>
      <point x="469" y="100" type="curve" smooth="yes"/>
      <point x="469" y="33"/>
      <point x="411" y="-9"/>
    </contour>
  </outline>
</glyph>
<glyph name="Wasse-beria" format="2">
  <advance width="884"/>
  <unicode hex="16EB7"/>
  <outline>
    <contour>
      <point x="773" y="-9" type="line"/>
      <point x="109" y="-9" type="line"/>
      <point x="109" y="-136" type="line"/>
      <point x="773" y="-136" type="line"/>
    </contour>
    <contour>
      <point x="269" y="-101" type="line"/>
      <point x="411" y="-101" type="line"/>
      <point x="134" y="673" type="line"/>
      <point x="10" y="613" type="line"/>
    </contour>
    <contour>
      <point x="508" y="-104" type="line"/>
      <point x="508" y="674" type="line"/>
      <point x="376" y="674" type="line"/>
      <point x="376" y="-104" type="line"/>
    </contour>
    <contour>
      <point x="474" y="-96" type="line"/>
      <point x="614" y="-96" type="line"/>
      <point x="874" y="617" type="line"/>
      <point x="752" y="673" type="line"/>
    </contour>
  </outline>
</glyph>
<glyph name="Ay-beria" format="2">
  <advance width="717"/>
  <unicode hex="16EB8"/>
  <outline>
    <contour>
      <point x="112" y="336" type="line"/>
      <point x="112" y="234" type="line"/>
      <point x="205" y="234" type="line"/>
      <point x="151" y="198"/>
      <point x="101" y="143"/>
      <point x="101" y="46" type="curve" smooth="yes"/>
      <point x="101" y="-72"/>
      <point x="200" y="-151"/>
      <point x="358" y="-151" type="curve" smooth="yes"/>
      <point x="517" y="-151"/>
      <point x="616" y="-72"/>
      <point x="616" y="46" type="curve" smooth="yes"/>
      <point x="616" y="143"/>
      <point x="566" y="198"/>
      <point x="511" y="234" type="curve"/>
      <point x="604" y="234" type="line"/>
      <point x="604" y="336" type="line"/>
      <point x="499" y="336" type="line"/>
      <point x="548" y="368"/>
      <point x="595" y="421"/>
      <point x="595" y="504" type="curve" smooth="yes"/>
      <point x="595" y="614"/>
      <point x="509" y="685"/>
      <point x="358" y="685" type="curve" smooth="yes"/>
      <point x="207" y="685"/>
      <point x="121" y="614"/>
      <point x="121" y="504" type="curve" smooth="yes"/>
      <point x="121" y="421"/>
      <point x="168" y="368"/>
      <point x="217" y="336" type="curve"/>
    </contour>
    <contour>
      <point x="358" y="-58" type="curve" smooth="yes"/>
      <point x="259" y="-58"/>
      <point x="209" y="-14"/>
      <point x="209" y="57" type="curve" smooth="yes"/>
      <point x="209" y="121"/>
      <point x="271" y="207"/>
      <point x="358" y="236" type="curve"/>
      <point x="444" y="206"/>
      <point x="508" y="120"/>
      <point x="508" y="56" type="curve" smooth="yes"/>
      <point x="508" y="-15"/>
      <point x="457" y="-58"/>
    </contour>
    <contour>
      <point x="358" y="340" type="curve"/>
      <point x="319" y="350"/>
      <point x="228" y="418"/>
      <point x="228" y="495" type="curve" smooth="yes"/>
      <point x="228" y="549"/>
      <point x="271" y="592"/>
      <point x="358" y="592" type="curve" smooth="yes"/>
      <point x="445" y="592"/>
      <point x="488" y="549"/>
      <point x="488" y="495" type="curve" smooth="yes"/>
      <point x="488" y="418"/>
      <point x="397" y="350"/>
    </contour>
  </outline>
</glyph>
<glyph name="arkab-beria" format="2">
  <advance width="676"/>
  <unicode hex="16EBB"/>
  <anchor x="338" y="720" name="U"/>
  <outline>
    <contour>
      <point x="505" y="-16" type="line"/>
      <point x="613" y="64" type="line"/>
      <point x="150" y="646" type="line"/>
      <point x="112" y="543" type="line"/>
      <point x="566" y="543" type="line"/>
      <point x="530" y="646" type="line"/>
      <point x="80" y="64" type="line"/>
      <point x="184" y="-15" type="line"/>
      <point x="629" y="564" type="line"/>
      <point x="629" y="668" type="line"/>
      <point x="47" y="668" type="line"/>
      <point x="47" y="564" type="line"/>
    </contour>
  </outline>
</glyph>
<glyph name="basigna-beria" format="2">
  <advance width="634"/>
  <unicode hex="16EBC"/>
  <outline>
    <contour>
      <point x="398" y="361" type="line"/>
      <point x="398" y="0" type="line"/>
      <point x="532" y="0" type="line"/>
      <point x="532" y="668" type="line"/>
      <point x="215" y="668" type="line"/>
      <point x="215" y="543" type="line"/>
      <point x="463" y="543" type="line"/>
      <point x="398" y="653" type="line"/>
      <point x="398" y="331" type="line"/>
      <point x="463" y="408" type="line"/>
      <point x="265" y="408" type="line" smooth="yes"/>
      <point x="162" y="408"/>
      <point x="82" y="322"/>
      <point x="82" y="219" type="curve" smooth="yes"/>
      <point x="82" y="0" type="line"/>
      <point x="216" y="0" type="line"/>
      <point x="216" y="205" type="line" smooth="yes"/>
      <point x="216" y="256"/>
      <point x="241" y="283"/>
      <point x="289" y="283" type="curve" smooth="yes"/>
      <point x="463" y="283" type="line"/>
    </contour>
  </outline>
</glyph>
<glyph name="darbai-beria" format="2">
  <advance width="657"/>
  <unicode hex="16EBD"/>
  <outline>
    <contour>
      <point x="72" y="125" type="line"/>
      <point x="72" y="0" type="line"/>
      <point x="367" y="0" type="line" smooth="yes"/>
      <point x="471" y="0"/>
      <point x="560" y="96"/>
      <point x="560" y="187" type="curve" smooth="yes"/>
      <point x="560" y="668" type="line"/>
      <point x="94" y="668" type="line"/>
      <point x="94" y="438" type="line"/>
      <point x="228" y="438" type="line"/>
      <point x="228" y="624" type="line"/>
      <point x="153" y="543" type="line"/>
      <point x="501" y="543" type="line"/>
      <point x="426" y="624" type="line"/>
      <point x="426" y="201" type="line" smooth="yes"/>
      <point x="426" y="150"/>
      <point x="401" y="125"/>
      <point x="353" y="125" type="curve" smooth="yes"/>
    </contour>
  </outline>
</glyph>
<glyph name="eh-beria" format="2">
  <advance width="662"/>
  <unicode hex="16EBE"/>
  <anchor x="323" y="720" name="U"/>
  <outline>
    <contour>
      <point x="496" y="217" type="line"/>
      <point x="496" y="342" type="line"/>
      <point x="341" y="342" type="line" smooth="yes"/>
      <point x="224" y="342"/>
      <point x="169" y="388"/>
      <point x="169" y="456" type="curve" smooth="yes"/>
      <point x="169" y="522"/>
      <point x="236" y="560"/>
      <point x="338" y="560" type="curve" smooth="yes"/>
      <point x="430" y="560"/>
      <point x="496" y="532"/>
      <point x="535" y="487" type="curve"/>
      <point x="632" y="566" type="line"/>
      <point x="555" y="652"/>
      <point x="456" y="685"/>
      <point x="338" y="685" type="curve" smooth="yes"/>
      <point x="158" y="685"/>
      <point x="33" y="596"/>
      <point x="33" y="453" type="curve" smooth="yes"/>
      <point x="33" y="310"/>
      <point x="142" y="217"/>
      <point x="344" y="217" type="curve" smooth="yes"/>
    </contour>
    <contour>
      <point x="165" y="0" type="line"/>
      <point x="524" y="0" type="line"/>
      <point x="524" y="125" type="line"/>
      <point x="213" y="125" type="line"/>
      <point x="260" y="22" type="line"/>
      <point x="407" y="244" type="line"/>
      <point x="246" y="244" type="line"/>
      <point x="165" y="122" type="line"/>
    </contour>
  </outline>
</glyph>
<glyph name="goway-beria" format="2">
  <advance width="755"/>
  <unicode hex="16EC0"/>
  <outline>
    <contour>
      <point x="309" y="0" type="line"/>
      <point x="443" y="0" type="line"/>
      <point x="443" y="198" type="line"/>
      <point x="309" y="198" type="line"/>
    </contour>
    <contour>
      <point x="281" y="100"/>
      <point x="673" y="271"/>
      <point x="673" y="461" type="curve" smooth="yes"/>
      <point x="673" y="604"/>
      <point x="573" y="684"/>
      <point x="376" y="684" type="curve" smooth="yes"/>
      <point x="180" y="684"/>
      <point x="80" y="604"/>
      <point x="80" y="461" type="curve" smooth="yes"/>
      <point x="80" y="264"/>
      <point x="470" y="103"/>
      <point x="656" y="37" type="curve"/>
      <point x="698" y="161" type="line"/>
      <point x="503" y="233"/>
      <point x="216" y="360"/>
      <point x="216" y="461" type="curve" smooth="yes"/>
      <point x="216" y="520"/>
      <point x="268" y="559"/>
      <point x="376" y="559" type="curve" smooth="yes"/>
      <point x="485" y="559"/>
      <point x="537" y="520"/>
      <point x="537" y="461" type="curve" smooth="yes"/>
      <point x="537" y="354"/>
      <point x="256" y="236"/>
      <point x="56" y="160" type="curve"/>
      <point x="99" y="37" type="line"/>
    </contour>
  </outline>
</glyph>
<glyph name="hirdeabo-beria" format="2">
  <advance width="748"/>
  <unicode hex="16EC1"/>
  <outline>
    <contour>
      <point x="102" y="668" type="line"/>
      <point x="102" y="0" type="line"/>
      <point x="236" y="0" type="line"/>
      <point x="236" y="623" type="line"/>
      <point x="141" y="543" type="line"/>
      <point x="607" y="543" type="line"/>
      <point x="512" y="623" type="line"/>
      <point x="512" y="0" type="line"/>
      <point x="646" y="0" type="line"/>
      <point x="646" y="668" type="line"/>
    </contour>
  </outline>
</glyph>
<glyph name="i-beria" format="2">
  <advance width="738"/>
  <unicode hex="16EC2"/>
  <anchor x="380" y="720" name="U"/>
  <outline>
    <contour>
      <point x="21" y="99" type="curve"/>
      <point x="65" y="-24" type="line"/>
      <point x="230" y="25"/>
      <point x="351" y="144"/>
      <point x="392" y="260" type="curve"/>
      <point x="375" y="260" type="line"/>
      <point x="390" y="201"/>
      <point x="430" y="162"/>
      <point x="521" y="162" type="curve" smooth="yes"/>
      <point x="719" y="162" type="line"/>
      <point x="719" y="287" type="line"/>
      <point x="554" y="287" type="line" smooth="yes"/>
      <point x="481" y="287"/>
      <point x="460" y="313"/>
      <point x="460" y="401" type="curve" smooth="yes"/>
      <point x="460" y="668" type="line"/>
      <point x="326" y="668" type="line"/>
      <point x="326" y="467" type="line" smooth="yes"/>
      <point x="326" y="305"/>
      <point x="217" y="153"/>
    </contour>
    <contour>
      <point x="428" y="92" type="line"/>
      <point x="428" y="-30" type="line"/>
      <point x="550" y="-30" type="line"/>
      <point x="550" y="92" type="line"/>
    </contour>
  </outline>
</glyph>
<glyph name="djai-beria" format="2">
  <advance width="830"/>
  <unicode hex="16EC3"/>
  <outline>
    <contour>
      <point x="708" y="-16" type="curve"/>
      <point x="811" y="69" type="line"/>
      <point x="703" y="196"/>
      <point x="562" y="370"/>
      <point x="562" y="506" type="curve" smooth="yes"/>
      <point x="562" y="546"/>
      <point x="571" y="559"/>
      <point x="595" y="559" type="curve" smooth="yes"/>
      <point x="619" y="559"/>
      <point x="630" y="545"/>
      <point x="630" y="506" type="curve" smooth="yes"/>
      <point x="630" y="353"/>
      <point x="464" y="182"/>
      <point x="368" y="89" type="curve"/>
      <point x="461" y="89" type="line"/>
      <point x="371" y="178"/>
      <point x="201" y="347"/>
      <point x="201" y="506" type="curve" smooth="yes"/>
      <point x="201" y="545"/>
      <point x="213" y="559"/>
      <point x="235" y="559" type="curve" smooth="yes"/>
      <point x="260" y="559"/>
      <point x="268" y="546"/>
      <point x="268" y="506" type="curve" smooth="yes"/>
      <point x="268" y="366"/>
      <point x="108" y="170"/>
      <point x="18" y="67" type="curve"/>
      <point x="120" y="-16" type="line"/>
      <point x="215" y="93"/>
      <point x="398" y="351"/>
      <point x="398" y="501" type="curve" smooth="yes"/>
      <point x="398" y="632"/>
      <point x="328" y="684"/>
      <point x="240" y="684" type="curve" smooth="yes"/>
      <point x="143" y="684"/>
      <point x="65" y="631"/>
      <point x="65" y="501" type="curve" smooth="yes"/>
      <point x="65" y="326"/>
      <point x="277" y="67"/>
      <point x="415" y="-14" type="curve"/>
      <point x="550" y="67"/>
      <point x="766" y="324"/>
      <point x="766" y="501" type="curve" smooth="yes"/>
      <point x="766" y="632"/>
      <point x="687" y="684"/>
      <point x="590" y="684" type="curve" smooth="yes"/>
      <point x="503" y="684"/>
      <point x="432" y="633"/>
      <point x="432" y="501" type="curve" smooth="yes"/>
      <point x="432" y="357"/>
      <point x="608" y="97"/>
    </contour>
  </outline>
</glyph>
<glyph name="kobo-beria" format="2">
  <advance width="647"/>
  <unicode hex="16EC4"/>
  <outline>
    <contour>
      <point x="330" y="-11" type="curve" smooth="yes"/>
      <point x="483" y="-11"/>
      <point x="572" y="73"/>
      <point x="572" y="207" type="curve" smooth="yes"/>
      <point x="572" y="352"/>
      <point x="463" y="421"/>
      <point x="313" y="452" type="curve" smooth="yes"/>
      <point x="285" y="458"/>
      <point x="242" y="465"/>
      <point x="214" y="468" type="curve"/>
      <point x="229" y="423" type="line"/>
      <point x="347" y="661" type="line"/>
      <point x="290" y="689" type="line"/>
      <point x="175" y="458" type="line"/>
      <point x="175" y="410" type="line"/>
      <point x="238" y="402"/>
      <point x="276" y="396"/>
      <point x="302" y="391" type="curve" smooth="yes"/>
      <point x="424" y="367"/>
      <point x="506" y="313"/>
      <point x="506" y="207" type="curve" smooth="yes"/>
      <point x="506" y="107"/>
      <point x="439" y="49"/>
      <point x="330" y="49" type="curve" smooth="yes"/>
      <point x="219" y="49"/>
      <point x="140" y="91"/>
      <point x="140" y="202" type="curve"/>
      <point x="76" y="202" type="line"/>
      <point x="76" y="53"/>
      <point x="182" y="-11"/>
    </contour>
  </outline>
</glyph>
<glyph name="lakko-beria" format="2">
  <advance width="568"/>
  <unicode hex="16EC5"/>
  <outline>
    <contour>
      <point x="50" y="125" type="line"/>
      <point x="50" y="0" type="line"/>
      <point x="518" y="0" type="line"/>
      <point x="518" y="125" type="line"/>
      <point x="271" y="125" type="line"/>
      <point x="351" y="15" type="line"/>
      <point x="351" y="668" type="line"/>
      <point x="217" y="668" type="line"/>
      <point x="217" y="15" type="line"/>
      <point x="297" y="125" type="line"/>
    </contour>
  </outline>
</glyph>
<glyph name="meri-beria" format="2">
  <advance width="735"/>
  <unicode hex="16EC6"/>
  <outline>
    <contour>
      <point x="33" y="-3" type="curve"/>
      <point x="96" y="-19" type="line"/>
      <point x="119" y="76"/>
      <point x="173" y="262"/>
      <point x="324" y="417" type="curve" smooth="yes"/>
      <point x="418" y="511"/>
      <point x="525" y="577"/>
      <point x="655" y="618" type="curve"/>
      <point x="630" y="678" type="line"/>
      <point x="500" y="638"/>
      <point x="376" y="565"/>
      <point x="273" y="459" type="curve" smooth="yes"/>
      <point x="109" y="291"/>
      <point x="55" y="85"/>
    </contour>
    <contour>
      <point x="587" y="250" type="line"/>
      <point x="640" y="286" type="line"/>
      <point x="474" y="552" type="line"/>
      <point x="421" y="516" type="line"/>
    </contour>
  </outline>
</glyph>
<glyph name="nini-beria" format="2">
  <advance width="703"/>
  <unicode hex="16EC7"/>
  <outline>
    <contour>
      <point x="350" y="410" type="curve" smooth="yes"/>
      <point x="162" y="410"/>
      <point x="63" y="295"/>
      <point x="63" y="194" type="curve" smooth="yes"/>
      <point x="63" y="83"/>
      <point x="172" y="-20"/>
      <point x="351" y="-20" type="curve" smooth="yes"/>
      <point x="531" y="-20"/>
      <point x="640" y="83"/>
      <point x="640" y="197" type="curve" smooth="yes"/>
      <point x="640" y="296"/>
      <point x="543" y="410"/>
    </contour>
    <contour>
      <point x="350" y="295" type="curve" smooth="yes"/>
      <point x="465" y="295"/>
      <point x="509" y="248"/>
      <point x="509" y="197" type="curve" smooth="yes"/>
      <point x="509" y="138"/>
      <point x="465" y="95"/>
      <point x="352" y="95" type="curve" smooth="yes"/>
      <point x="235" y="95"/>
      <point x="194" y="138"/>
      <point x="194" y="194" type="curve" smooth="yes"/>
      <point x="194" y="248"/>
      <point x="236" y="295"/>
    </contour>
    <contour>
      <point x="575" y="543" type="line"/>
      <point x="575" y="668" type="line"/>
      <point x="126" y="668" type="line"/>
      <point x="126" y="543" type="line"/>
      <point x="329" y="543" type="line"/>
      <point x="284" y="588" type="line"/>
      <point x="284" y="24" type="line"/>
      <point x="418" y="24" type="line"/>
      <point x="418" y="588" type="line"/>
      <point x="373" y="543" type="line"/>
    </contour>
  </outline>
</glyph>
<glyph name="gna-beria" format="2">
  <advance width="700"/>
  <unicode hex="16EC8"/>
  <outline>
    <contour>
      <point x="101" y="0" type="line"/>
      <point x="235" y="0" type="line"/>
      <point x="235" y="403" type="line"/>
      <point x="160" y="324" type="line"/>
      <point x="308" y="324" type="line" smooth="yes"/>
      <point x="448" y="324"/>
      <point x="500" y="273"/>
      <point x="500" y="208" type="curve" smooth="yes"/>
      <point x="500" y="152" type="line" smooth="yes"/>
      <point x="500" y="128"/>
      <point x="489" y="120"/>
      <point x="469" y="120" type="curve" smooth="yes"/>
      <point x="457" y="120" type="line" smooth="yes"/>
      <point x="437" y="120"/>
      <point x="427" y="128"/>
      <point x="427" y="152" type="curve" smooth="yes"/>
      <point x="427" y="190" type="line"/>
      <point x="302" y="190" type="line"/>
      <point x="302" y="98" type="line" smooth="yes"/>
      <point x="302" y="45"/>
      <point x="355" y="-5"/>
      <point x="416" y="-5" type="curve" smooth="yes"/>
      <point x="520" y="-5" type="line" smooth="yes"/>
      <point x="591" y="-5"/>
      <point x="634" y="49"/>
      <point x="634" y="110" type="curve" smooth="yes"/>
      <point x="634" y="210" type="line" smooth="yes"/>
      <point x="634" y="341"/>
      <point x="529" y="428"/>
      <point x="379" y="439" type="curve"/>
      <point x="394" y="394" type="line"/>
      <point x="441" y="416"/>
      <point x="483" y="456"/>
      <point x="483" y="520" type="curve" smooth="yes"/>
      <point x="483" y="613"/>
      <point x="397" y="668"/>
      <point x="297" y="668" type="curve" smooth="yes"/>
      <point x="101" y="668" type="line"/>
    </contour>
    <contour>
      <point x="284" y="444" type="curve" smooth="yes"/>
      <point x="160" y="444" type="line"/>
      <point x="235" y="381" type="line"/>
      <point x="235" y="643" type="line"/>
      <point x="160" y="543" type="line"/>
      <point x="281" y="543" type="line" smooth="yes"/>
      <point x="329" y="543"/>
      <point x="354" y="529"/>
      <point x="354" y="500" type="curve" smooth="yes"/>
      <point x="354" y="463"/>
      <point x="319" y="444"/>
    </contour>
  </outline>
</glyph>
<glyph name="ngay-beria" format="2">
  <advance width="649"/>
  <unicode hex="16EC9"/>
  <outline>
    <contour>
      <point x="402" y="-5" type="curve" smooth="yes"/>
      <point x="513" y="-5" type="line" smooth="yes"/>
      <point x="574" y="-5"/>
      <point x="628" y="59"/>
      <point x="628" y="120" type="curve" smooth="yes"/>
      <point x="628" y="269" type="line" smooth="yes"/>
      <point x="628" y="344"/>
      <point x="558" y="412"/>
      <point x="485" y="412" type="curve" smooth="yes"/>
      <point x="141" y="412" type="line"/>
      <point x="226" y="317" type="line"/>
      <point x="226" y="653" type="line"/>
      <point x="141" y="543" type="line"/>
      <point x="459" y="543" type="line"/>
      <point x="459" y="668" type="line"/>
      <point x="92" y="668" type="line"/>
      <point x="92" y="0" type="line"/>
      <point x="226" y="0" type="line"/>
      <point x="226" y="347" type="line"/>
      <point x="141" y="287" type="line"/>
      <point x="439" y="287" type="line" smooth="yes"/>
      <point x="477" y="287"/>
      <point x="494" y="269"/>
      <point x="494" y="232" type="curve" smooth="yes"/>
      <point x="494" y="152" type="line" smooth="yes"/>
      <point x="494" y="127"/>
      <point x="490" y="120"/>
      <point x="468" y="120" type="curve" smooth="yes"/>
      <point x="447" y="120" type="line" smooth="yes"/>
      <point x="424" y="120"/>
      <point x="418" y="127"/>
      <point x="418" y="152" type="curve" smooth="yes"/>
      <point x="418" y="185" type="line"/>
      <point x="284" y="185" type="line"/>
      <point x="284" y="109" type="line" smooth="yes"/>
      <point x="284" y="60"/>
      <point x="343" y="-5"/>
    </contour>
  </outline>
</glyph>
<glyph name="oi-beria" format="2">
  <advance width="758"/>
  <unicode hex="16ECA"/>
  <anchor x="423" y="720" name="U"/>
  <outline>
    <contour>
      <point x="1" y="125" type="line"/>
      <point x="1" y="0" type="line"/>
      <point x="243" y="0" type="line"/>
      <point x="485" y="610" type="line"/>
      <point x="358" y="610" type="line"/>
      <point x="599" y="16" type="line"/>
      <point x="676" y="125" type="line"/>
      <point x="418" y="125" type="line"/>
      <point x="418" y="0" type="line"/>
      <point x="702" y="0" type="line"/>
      <point x="702" y="112" type="line"/>
      <point x="476" y="668" type="line"/>
      <point x="364" y="668" type="line"/>
      <point x="107" y="18" type="line"/>
      <point x="199" y="125" type="line"/>
    </contour>
  </outline>
</glyph>
<glyph name="erigo-beria" format="2">
  <advance width="828"/>
  <unicode hex="16ECC"/>
  <outline>
    <contour>
      <point x="348" y="125" type="line"/>
      <point x="220" y="125" type="line"/>
      <point x="220" y="668" type="line"/>
      <point x="86" y="668" type="line"/>
      <point x="86" y="0" type="line"/>
      <point x="742" y="0" type="line"/>
      <point x="742" y="668" type="line"/>
      <point x="608" y="668" type="line"/>
      <point x="608" y="125" type="line"/>
      <point x="480" y="125" type="line"/>
      <point x="480" y="668" type="line"/>
      <point x="348" y="668" type="line"/>
    </contour>
  </outline>
</glyph>
<glyph name="erigo-tamura-beria" format="2">
  <advance width="828"/>
  <unicode hex="16ECD"/>
  <outline>
    <contour>
      <point x="86" y="259" type="line"/>
      <point x="742" y="259" type="line"/>
      <point x="742" y="668" type="line"/>
      <point x="608" y="668" type="line"/>
      <point x="608" y="384" type="line"/>
      <point x="220" y="384" type="line"/>
      <point x="220" y="668" type="line"/>
      <point x="86" y="668" type="line"/>
    </contour>
    <contour>
      <point x="87" y="0" type="line"/>
      <point x="288" y="0" type="line" smooth="yes"/>
      <point x="392" y="0"/>
      <point x="481" y="99"/>
      <point x="481" y="187" type="curve" smooth="yes"/>
      <point x="481" y="668" type="line"/>
      <point x="347" y="668" type="line"/>
      <point x="347" y="201" type="line" smooth="yes"/>
      <point x="347" y="150"/>
      <point x="322" y="125"/>
      <point x="274" y="125" type="curve" smooth="yes"/>
      <point x="87" y="125" type="line"/>
    </contour>
  </outline>
</glyph>
<glyph name="seri-beria" format="2">
  <advance width="601"/>
  <unicode hex="16ECE"/>
  <outline>
    <contour>
      <point x="39" y="0" type="line"/>
      <point x="220" y="0" type="line" smooth="yes"/>
      <point x="324" y="0"/>
      <point x="413" y="96"/>
      <point x="413" y="187" type="curve" smooth="yes"/>
      <point x="413" y="653" type="line"/>
      <point x="333" y="543" type="line"/>
      <point x="547" y="543" type="line"/>
      <point x="547" y="668" type="line"/>
      <point x="145" y="668" type="line"/>
      <point x="145" y="543" type="line"/>
      <point x="359" y="543" type="line"/>
      <point x="279" y="653" type="line"/>
      <point x="279" y="201" type="line" smooth="yes"/>
      <point x="279" y="150"/>
      <point x="254" y="125"/>
      <point x="206" y="125" type="curve" smooth="yes"/>
      <point x="39" y="125" type="line"/>
    </contour>
    <contour>
      <point x="165" y="320" type="line"/>
      <point x="527" y="320" type="line"/>
      <point x="527" y="445" type="line"/>
      <point x="165" y="445" type="line"/>
    </contour>
  </outline>
</glyph>
<glyph name="shep-beria" format="2">
  <advance width="606"/>
  <unicode hex="16ECF"/>
  <outline>
    <contour>
      <point x="41" y="0" type="line"/>
      <point x="222" y="0" type="line" smooth="yes"/>
      <point x="346" y="0"/>
      <point x="415" y="69"/>
      <point x="415" y="187" type="curve" smooth="yes"/>
      <point x="415" y="653" type="line"/>
      <point x="335" y="543" type="line"/>
      <point x="559" y="543" type="line"/>
      <point x="559" y="668" type="line"/>
      <point x="137" y="668" type="line"/>
      <point x="137" y="543" type="line"/>
      <point x="361" y="543" type="line"/>
      <point x="281" y="653" type="line"/>
      <point x="281" y="201" type="line" smooth="yes"/>
      <point x="281" y="150"/>
      <point x="256" y="125"/>
      <point x="208" y="125" type="curve" smooth="yes"/>
      <point x="41" y="125" type="line"/>
    </contour>
    <contour>
      <point x="165" y="373" type="line"/>
      <point x="527" y="373" type="line"/>
      <point x="527" y="493" type="line"/>
      <point x="165" y="493" type="line"/>
    </contour>
    <contour>
      <point x="165" y="209" type="line"/>
      <point x="527" y="209" type="line"/>
      <point x="527" y="329" type="line"/>
      <point x="165" y="329" type="line"/>
    </contour>
  </outline>
</glyph>
<glyph name="tatasoue-beria" format="2">
  <advance width="651"/>
  <unicode hex="16ED0"/>
  <outline>
    <contour>
      <point x="155" y="0" type="line"/>
      <point x="553" y="0" type="line"/>
      <point x="553" y="125" type="line"/>
      <point x="210" y="125" type="line"/>
      <point x="249" y="21" type="line"/>
      <point x="604" y="615" type="line"/>
      <point x="487" y="674" type="line"/>
      <point x="155" y="120" type="line"/>
    </contour>
    <contour>
      <point x="311" y="278" type="line"/>
      <point x="396" y="383" type="line"/>
      <point x="125" y="674" type="line"/>
      <point x="34" y="575" type="line"/>
    </contour>
  </outline>
</glyph>
<glyph name="ui-beria" format="2">
  <advance width="601"/>
  <unicode hex="16ED1"/>
  <anchor x="237" y="720" name="U"/>
  <outline>
    <contour>
      <point x="133" y="0" type="line"/>
      <point x="256" y="0" type="line" smooth="yes"/>
      <point x="430" y="0"/>
      <point x="535" y="74"/>
      <point x="535" y="199" type="curve" smooth="yes"/>
      <point x="535" y="323"/>
      <point x="433" y="400"/>
      <point x="256" y="400" type="curve" smooth="yes"/>
      <point x="202" y="400" type="line"/>
      <point x="267" y="355" type="line"/>
      <point x="267" y="668" type="line"/>
      <point x="0" y="668" type="line"/>
      <point x="0" y="543" type="line"/>
      <point x="228" y="543" type="line"/>
      <point x="133" y="653" type="line"/>
    </contour>
    <contour>
      <point x="202" y="275" type="line"/>
      <point x="279" y="275" type="line" smooth="yes"/>
      <point x="364" y="275"/>
      <point x="399" y="237"/>
      <point x="399" y="204" type="curve" smooth="yes"/>
      <point x="399" y="162"/>
      <point x="364" y="125"/>
      <point x="279" y="125" type="curve" smooth="yes"/>
      <point x="202" y="125" type="line"/>
      <point x="267" y="14" type="line"/>
      <point x="267" y="386" type="line"/>
    </contour>
  </outline>
</glyph>
<glyph name="wasse-beria" format="2">
  <advance width="771"/>
  <unicode hex="16ED2"/>
  <outline>
    <contour>
      <point x="97" y="102" type="curve"/>
      <point x="149" y="-22" type="line"/>
      <point x="283" y="16"/>
      <point x="387" y="103"/>
      <point x="415" y="199" type="curve"/>
      <point x="357" y="199" type="line"/>
      <point x="385" y="103"/>
      <point x="489" y="16"/>
      <point x="623" y="-22" type="curve"/>
      <point x="675" y="102" type="line"/>
      <point x="536" y="152"/>
      <point x="453" y="219"/>
      <point x="453" y="299" type="curve" smooth="yes"/>
      <point x="453" y="374"/>
      <point x="550" y="434"/>
      <point x="686" y="457" type="curve" smooth="yes"/>
      <point x="704" y="460"/>
      <point x="716" y="462"/>
      <point x="734" y="465" type="curve"/>
      <point x="714" y="597" type="line"/>
      <point x="693" y="594"/>
      <point x="681" y="592"/>
      <point x="665" y="589" type="curve" smooth="yes"/>
      <point x="553" y="568"/>
      <point x="450" y="525"/>
      <point x="403" y="453" type="curve"/>
      <point x="453" y="428" type="line"/>
      <point x="453" y="675" type="line"/>
      <point x="319" y="675" type="line"/>
      <point x="319" y="428" type="line"/>
      <point x="370" y="452" type="line"/>
      <point x="319" y="526"/>
      <point x="219" y="568"/>
      <point x="107" y="589" type="curve" smooth="yes"/>
      <point x="91" y="592"/>
      <point x="76" y="594"/>
      <point x="58" y="597" type="curve"/>
      <point x="37" y="465" type="line"/>
      <point x="55" y="462"/>
      <point x="67" y="460"/>
      <point x="85" y="457" type="curve" smooth="yes"/>
      <point x="224" y="434"/>
      <point x="319" y="374"/>
      <point x="319" y="299" type="curve" smooth="yes"/>
      <point x="319" y="219"/>
      <point x="236" y="152"/>
    </contour>
  </outline>
</glyph>
<glyph name="ay-beria" format="2">
  <advance width="622"/>
  <unicode hex="16ED3"/>
  <outline>
    <contour>
      <point x="546" y="302" type="curve"/>
      <point x="532" y="363" type="line"/>
      <point x="282" y="309"/>
      <point x="123" y="256"/>
      <point x="123" y="129" type="curve" smooth="yes"/>
      <point x="123" y="22"/>
      <point x="216" y="-15"/>
      <point x="304" y="-15" type="curve" smooth="yes"/>
      <point x="402" y="-15"/>
      <point x="504" y="32"/>
      <point x="504" y="150" type="curve" smooth="yes"/>
      <point x="504" y="331"/>
      <point x="199" y="393"/>
      <point x="199" y="546" type="curve" smooth="yes"/>
      <point x="199" y="602"/>
      <point x="257" y="625"/>
      <point x="308" y="625" type="curve" smooth="yes"/>
      <point x="351" y="625"/>
      <point x="399" y="603"/>
      <point x="399" y="558" type="curve" smooth="yes"/>
      <point x="399" y="474"/>
      <point x="215" y="435"/>
      <point x="75" y="409" type="curve"/>
      <point x="88" y="350" type="line"/>
      <point x="256" y="381"/>
      <point x="463" y="433"/>
      <point x="463" y="557" type="curve" smooth="yes"/>
      <point x="463" y="643"/>
      <point x="380" y="684"/>
      <point x="308" y="684" type="curve" smooth="yes"/>
      <point x="227" y="684"/>
      <point x="135" y="643"/>
      <point x="135" y="546" type="curve" smooth="yes"/>
      <point x="135" y="364"/>
      <point x="440" y="289"/>
      <point x="440" y="150" type="curve" smooth="yes"/>
      <point x="440" y="74"/>
      <point x="371" y="44"/>
      <point x="304" y="44" type="curve" smooth="yes"/>
      <point x="246" y="44"/>
      <point x="188" y="67"/>
      <point x="188" y="131" type="curve" smooth="yes"/>
      <point x="188" y="215"/>
      <point x="323" y="259"/>
    </contour>
  </outline>
</glyph>
<glyph name="Arkab-beria.001" format="2">
  <advance width="785"/>
  <anchor x="393" y="720" name="U"/>
  <outline>
    <contour>
      <point x="80" y="-68" type="line"/>
      <point x="183" y="-146" type="line"/>
      <point x="722" y="565" type="line"/>
      <point x="722" y="668" type="line"/>
      <point x="73" y="668" type="line"/>
      <point x="73" y="565" type="line"/>
      <point x="615" y="-144" type="line"/>
      <point x="721" y="-64" type="line"/>
      <point x="183" y="642" type="line"/>
      <point x="134" y="545" type="line"/>
      <point x="657" y="545" type="line"/>
      <point x="618" y="642" type="line"/>
    </contour>
  </outline>
</glyph>
<glyph name="Basigna-beria.001" format="2">
  <advance width="831"/>
  <outline>
    <contour>
      <point x="694" y="673" type="line"/>
      <point x="370" y="-110" type="line"/>
      <point x="474" y="-110" type="line"/>
      <point x="149" y="674" type="line"/>
      <point x="17" y="647" type="line"/>
      <point x="342" y="-136" type="line"/>
      <point x="499" y="-136" type="line"/>
      <point x="824" y="646" type="line"/>
    </contour>
    <contour>
      <point x="589" y="268" type="curve"/>
      <point x="613" y="378" type="line"/>
      <point x="567" y="405"/>
      <point x="520" y="418"/>
      <point x="480" y="424" type="curve"/>
      <point x="480" y="674" type="line"/>
      <point x="354" y="674" type="line"/>
      <point x="354" y="424" type="line"/>
      <point x="313" y="418"/>
      <point x="277" y="408"/>
      <point x="220" y="380" type="curve"/>
      <point x="245" y="271" type="line"/>
      <point x="313" y="301"/>
      <point x="363" y="311"/>
      <point x="417" y="311" type="curve" smooth="yes"/>
      <point x="470" y="311"/>
      <point x="534" y="296"/>
    </contour>
  </outline>
</glyph>
<glyph name="Gna-beria.001" format="2">
  <advance width="757"/>
  <outline>
    <contour>
      <point x="425" y="385" type="curve"/>
      <point x="469" y="402"/>
      <point x="518" y="449"/>
      <point x="518" y="513" type="curve" smooth="yes"/>
      <point x="518" y="624"/>
      <point x="430" y="668"/>
      <point x="309" y="668" type="curve" smooth="yes"/>
      <point x="125" y="668" type="line"/>
      <point x="125" y="0" type="line"/>
      <point x="232" y="0" type="line"/>
      <point x="232" y="310" type="line"/>
      <point x="350" y="310" type="line" smooth="yes"/>
      <point x="488" y="310"/>
      <point x="567" y="257"/>
      <point x="567" y="169" type="curve" smooth="yes"/>
      <point x="567" y="63"/>
      <point x="449" y="-33"/>
      <point x="321" y="-33" type="curve" smooth="yes"/>
      <point x="288" y="-33" type="line"/>
      <point x="288" y="-136" type="line"/>
      <point x="671" y="-136" type="line"/>
      <point x="671" y="-33" type="line"/>
      <point x="544" y="-33" type="line"/>
      <point x="628" y="15"/>
      <point x="675" y="83"/>
      <point x="675" y="177" type="curve" smooth="yes"/>
      <point x="675" y="316"/>
      <point x="550" y="378"/>
    </contour>
    <contour>
      <point x="307" y="411" type="curve" smooth="yes"/>
      <point x="232" y="411" type="line"/>
      <point x="232" y="569" type="line"/>
      <point x="295" y="569" type="line" smooth="yes"/>
      <point x="377" y="569"/>
      <point x="411" y="544"/>
      <point x="411" y="498" type="curve" smooth="yes"/>
      <point x="411" y="446"/>
      <point x="374" y="411"/>
    </contour>
  </outline>
</glyph>
<glyph name="Lakko-beria.001" format="2">
  <advance width="550"/>
  <outline>
    <contour>
      <point x="108" y="668" type="line"/>
      <point x="108" y="549" type="line"/>
      <point x="206" y="549" type="line"/>
      <point x="206" y="-17" type="line"/>
      <point x="55" y="-17" type="line"/>
      <point x="55" y="-136" type="line"/>
      <point x="495" y="-136" type="line"/>
      <point x="495" y="-17" type="line"/>
      <point x="344" y="-17" type="line"/>
      <point x="344" y="549" type="line"/>
      <point x="443" y="549" type="line"/>
      <point x="443" y="668" type="line"/>
    </contour>
  </outline>
</glyph>
<glyph name="Oi-beria.001" format="2">
  <advance width="839"/>
  <anchor x="453" y="720" name="U"/>
  <outline>
    <contour>
      <point x="6" y="-16" type="line"/>
      <point x="6" y="-136" type="line"/>
      <point x="248" y="-136" type="line"/>
      <point x="510" y="500" type="line"/>
      <point x="405" y="500" type="line"/>
      <point x="681" y="-115" type="line"/>
      <point x="718" y="-17" type="line"/>
      <point x="512" y="-17" type="line"/>
      <point x="512" y="-136" type="line"/>
      <point x="786" y="-136" type="line"/>
      <point x="786" y="-28" type="line"/>
      <point x="551" y="490" type="line"/>
      <point x="551" y="494" type="line"/>
      <point x="743" y="494" type="line"/>
      <point x="743" y="613" type="line"/>
      <point x="527" y="613" type="line"/>
      <point x="527" y="684" type="line"/>
      <point x="389" y="684" type="line"/>
      <point x="389" y="613" type="line"/>
      <point x="189" y="613" type="line"/>
      <point x="189" y="494" type="line"/>
      <point x="366" y="494" type="line"/>
      <point x="366" y="488" type="line"/>
      <point x="117" y="-114" type="line"/>
      <point x="209" y="-16" type="line"/>
    </contour>
  </outline>
</glyph>
<glyph name="Tatasoue-beria.001" format="2">
  <advance width="710"/>
  <outline>
    <contour>
      <point x="445" y="327" type="line"/>
      <point x="120" y="674" type="line"/>
      <point x="31" y="589" type="line"/>
      <point x="373" y="219" type="line"/>
    </contour>
    <contour>
      <point x="545" y="684" type="line"/>
      <point x="196" y="-27" type="line"/>
      <point x="196" y="-136" type="line"/>
      <point x="614" y="-136" type="line"/>
      <point x="614" y="-17" type="line"/>
      <point x="235" y="-17" type="line"/>
      <point x="300" y="-112" type="line"/>
      <point x="663" y="629" type="line"/>
    </contour>
  </outline>
</glyph>
<glyph name="Wasse-beria.001" format="2">
  <advance width="884"/>
  <outline>
    <contour>
      <point x="91" y="-136" type="line"/>
      <point x="793" y="-136" type="line"/>
      <point x="793" y="-4" type="line"/>
      <point x="669" y="-4" type="line"/>
      <point x="890" y="617" type="line"/>
      <point x="761" y="673" type="line"/>
      <point x="520" y="-4" type="line"/>
      <point x="510" y="-4" type="line"/>
      <point x="510" y="674" type="line"/>
      <point x="374" y="674" type="line"/>
      <point x="374" y="-4" type="line"/>
      <point x="364" y="-4" type="line"/>
      <point x="124" y="673" type="line"/>
      <point x="-6" y="616" type="line"/>
      <point x="213" y="-4" type="line"/>
      <point x="91" y="-4" type="line"/>
    </contour>
  </outline>
</glyph>
<glyph name="_acutecomb.cap" format="2">
  <anchor x="0" y="702" name="_aboveUC"/>
  <outline>
    <contour>
      <point x="-18" y="723" type="line"/>
      <point x="130" y="841" type="line"/>
      <point x="89" y="889" type="line"/>
      <point x="-50" y="759" type="line"/>
    </contour>
  </outline>
</glyph>
<glyph name="_circumflexcomb" format="2">
  <anchor x="0" y="524" name="_aboveLC"/>
  <anchor x="0" y="755" name="aboveLC"/>
  <outline>
    <contour>
      <point x="-153" y="617" type="line"/>
      <point x="-122" y="588" type="line"/>
      <point x="-2" y="710" type="line"/>
      <point x="2" y="710" type="line"/>
      <point x="122" y="588" type="line"/>
      <point x="153" y="617" type="line"/>
      <point x="34" y="763" type="line"/>
      <point x="-34" y="763" type="line"/>
    </contour>
  </outline>
</glyph>
